<svg xmlns="http://www.w3.org/2000/svg" viewBox="0 0 415.15 88.71"><defs><style>.cls-1{fill:#717171;}</style></defs><title>Recurso 4</title><g id="Capa_2" data-name="Capa 2"><g id="Capa_1-2" data-name="Capa 1"><path class="cls-1" d="M84.89,86.91c3-3.8,5.59-6.77,7.81-10C104.43,59.68,98.86,35.18,80.18,24a59.69,59.69,0,0,0-7.39-3.54,3.08,3.08,0,0,1-2.2-3c-.06-2.64.43-3.31,3.19-3.35,4.49-.08,9,0,13.47,0,5,0,5,0,5-5.19,0-2.11,0-4.22,0-6.34,0-1.71.78-2.52,2.48-2.5,1,0,2,0,3,0H409.55c6.43,0,5.56-.12,5.56,5.72q0,38.06,0,76.1c0,1,0,2,0,3a2,2,0,0,1-2.21,2.34c-1,0-2,0-3,0H90.26C88.69,87.18,87.12,87,84.89,86.91ZM230.06,41.59l1.14-.49c1,1,2,2,2.85,3.16,7.2,9.05,14.36,18.14,21.6,27.16.8,1,2,2.27,3.12,2.34,4.6.27,9.22.22,13.83,0,.74,0,1.74-1.2,2.06-2a9.6,9.6,0,0,0,.16-3.32V26.66c0-3.23.06-6.46,0-9.69-.09-3-.49-3.37-3.57-3.43-3.24-.07-6.48,0-9.73,0-3.9,0-4.21.32-4.23,4.31,0,8.45,0,16.9,0,25.36,0,1.26-.15,2.53-.28,4.53-1.18-1.29-1.79-1.88-2.32-2.54-7.4-9.2-14.89-18.35-22.14-27.67-2.29-2.94-4.79-4.5-8.55-4a43.58,43.58,0,0,1-5.24,0c-5.83,0-5.84,0-5.86,5.65,0,10.07,0,20.14-.11,30.2-.07,6.83-.28,13.66-.44,20.49-.08,3.47.45,4,4.07,4.09,3.24,0,6.49,0,9.73,0,3.76,0,3.94-.22,4-4.11,0-8.08,0-16.16,0-24.24Zm117,2.29c0,8.58,0,17.16,0,25.74,0,4.22.12,4.3,4.47,4.33,2.37,0,4.74,0,7.11,0,3.86,0,4-.17,4-4,0-5.47,0-10.94,0-16.41,0-4.27,0-4.28,4.46-4.3q7.11,0,14.23,0c4.24,0,4.41.2,4.43,4.47,0,5.6,0,11.19,0,16.79,0,3.09.35,3.37,3.49,3.44s6,0,9,0c2.21.06,3.24-.9,3.19-3.09,0-.87,0-1.74,0-2.61V19.39c0-1,0-2,0-3-.05-2-1-2.93-3.06-2.89-3,.05-6,0-9,0-3.5.07-4.07.65-4.11,4.23-.06,5.22,0,10.45,0,15.67,0,3.5-.32,3.76-3.93,3.79-4.74,0-9.48,0-14.22,0-4.12,0-4.41-.34-4.44-4.52,0-5.34-.05-10.69,0-16,0-2.19-.9-3.2-3.12-3.15-2.75.05-5.49,0-8.24,0-4,0-4.25.27-4.26,4.24C347,26.47,347,35.17,347,43.88ZM334.26,74.46v0h4.11c4.33,0,4.47-.21,3-4.11-1.89-5-3.83-10-5.73-15C330.74,42.5,325.82,29.61,321,16.68a4.29,4.29,0,0,0-4.77-3.19c-3.23.12-6.49.14-9.72,0-2.67-.12-4.06,1-5,3.48-2.12,5.85-4.48,11.6-6.74,17.39q-7.26,18.59-14.51,37.17c-.92,2.37-.63,2.84,2,2.92,3.24.09,6.49,0,9.73,0a4,4,0,0,0,4.3-2.84c.77-2,1.74-3.85,2.54-5.81a3.54,3.54,0,0,1,3.7-2.49q8.22.1,16.46,0a3.74,3.74,0,0,1,4.07,3.05c.56,1.9,1.39,3.73,1.93,5.64a3,3,0,0,0,3.26,2.43C330.26,74.45,332.26,74.46,334.26,74.46ZM136.54,18.8l-1,0c-.57-1-1.16-2.09-1.72-3.15-1.73-3.32-2.39-3.56-5.85-1.82-2.34,1.17-4.6,2.49-6.92,3.71-5.89,3.09-6,3.11-3.57,9.31.76,1.93.47,2.54-1.61,3-7.57,1.56-10.23,5.38-9.36,13a11,11,0,0,0,10.79,9.94c.92,0,1.85.19,3.24.34-1.14,2.41-2.15,4.38-3,6.41-1.13,2.64-.75,3.78,1.8,5.19s5.33,2.73,8,4.07c5.78,2.88,5.88,2.92,8.38-3,1-2.33,2.39-2.74,4.7-2.32a23.35,23.35,0,0,0,6.67.31c4.29-.5,4.27-.66,6.11,3.24.21.45.42.9.67,1.33,1.45,2.52,2.15,2.8,4.81,1.5,3.7-1.8,7.32-3.75,11-5.6,1.91-1,2.5-2.27,1.47-4.24-.87-1.65-1.66-3.35-2.43-5s-.18-2.62,1.7-2.68a12.54,12.54,0,0,1,1.5,0c4.57.38,9.57-4.15,10.24-10a11,11,0,0,0-7.72-11.79c-1.64-.48-3.36-.72-5.52-1.16.83-2.1,1.53-4,2.35-5.92.69-1.59.68-2.89-1-3.77-4.12-2.07-8.22-4.16-12.35-6.2-1.67-.83-2.88-.27-3.66,1.37a32.42,32.42,0,0,1-1.56,3c-1.21,1.9-2,1.84-3.09-.21-.36-.65-.62-1.36-.93-2-1.11-2.37-2.11-4.78-3.35-7.08s-2.34-2.19-3.68,0c-.45.74-.8,1.54-1.18,2.33Zm53.75,25.13c0,8.82,0,17.63,0,26.44,0,3.86.22,4.06,3.95,4.1,2.87,0,5.73,0,8.6,0,4,0,4.16-.15,4.17-4.23q0-16.76,0-33.51c0-6.46,0-12.91,0-19.37,0-3.45-.38-3.77-3.91-3.84-2.86,0-5.73,0-8.59,0-3.9.05-4.2.34-4.21,4.34C190.27,26.56,190.29,35.25,190.29,43.93Zm-46.9,23.76a6.36,6.36,0,0,0-6.6,6.55,6.85,6.85,0,0,0,6.79,6.93,6.56,6.56,0,0,0,6.49-6.74C150.11,70.23,147.54,67.64,143.39,67.69Z"/><path class="cls-1" d="M19.66,27.58c-3.16-5.08-4.81-10.17-3.09-15.84A16.09,16.09,0,0,1,22.89,3.2a16.43,16.43,0,0,1,19.49.92c6.75,5.82,7.54,12.84,2.4,23.29.84.54,1.7,1.16,2.62,1.69,14.28,8.26,20.06,23.57,14.41,39-1.16,3.19-3.46,6-5.22,9-.48.82-.88,1.68-1.33,2.52a13.57,13.57,0,0,0,3,1C69.48,81.74,79.34,74.4,82.87,65c4.45-11.89-2.34-26.44-14.68-30.61a42.79,42.79,0,0,0-8.78-1.52c-2.93-.35-3.2-.38-3.22-3.34,0-8.82,0-17.65,0-26.48,0-2,.75-2.94,2.84-2.93Q71.16.17,83.33.1c2.24,0,3.18,1,3,3.2a14.59,14.59,0,0,0,0,1.87c.15,2.22-.89,3.14-3.11,3.11-4.49-.06-9,0-13.47,0l-3,0c-1.49,0-2.34.68-2.34,2.25q0,6.15,0,12.31c0,1.84,1.05,2.61,2.7,3,12.87,2.87,21,11.07,23.77,23.53,2.54,11.64-.24,22.66-9.51,31-9.53,8.52-20.65,10.49-32.71,6.14-2.48-.89-4.53-.48-6.83.25-16,5.1-32.28-1.85-39.15-17.3S2.4,36.66,17.49,28.7Zm12.52,5.13C19.3,32.3,8.2,43.16,8.09,56.05,8,69.71,18.49,80.55,31.78,80.62a24,24,0,1,0,.4-47.91Zm.37-24.56a8.46,8.46,0,0,0-8.88,7.75c-.31,4.28,3.58,8.46,8,8.64a8.41,8.41,0,0,0,8.57-7.65A8.1,8.1,0,0,0,32.55,8.15Z"/><path class="cls-1" d="M311.72,34.07c.91,2.67,1.65,4.73,2.32,6.81.86,2.71,1.67,5.45,2.5,8.18.46,1.47.13,2.48-1.62,2.49-3.21,0-6.42,0-9.61,0C305.22,48.53,309.1,37.69,311.72,34.07Z"/><path class="cls-1" d="M169.77,49.22c-.56-.23-1.94-.73-3.25-1.36-.66-.32-1.16-1.09-1.83-1.26a4.12,4.12,0,0,0-2.72.09c-.43.25-.57,1.66-.3,2.33,1.18,3,2.58,5.92,3.88,8.87,1.66,3.8,1.65,3.79-2,5.54-1.46.7-2.89,1.46-4.33,2.19-1.87.95-3.34.89-4.1-1.41-.27-.82-.75-1.57-1.08-2.38-.69-1.7-2-3.52-1.81-5.1.2-1.32,2.28-2.35,3.52-3.52a16,16,0,0,0-.06-23.3c-2.91-2.8-2.91-2.8-1.29-6.52,2.77-6.36,2.77-6.36,9-3.45.57.27,1.14.51,1.69.81,2.88,1.57,3,1.86,1.52,5A51.24,51.24,0,0,0,164,31.49c-.73,2.29.34,3.28,2.72,2.79.85-.17,1.66-.55,2.52-.71,4.68-.88,8.36,2.1,8.89,7.18C178.63,45.18,175.09,49.19,169.77,49.22Z"/><path class="cls-1" d="M109.48,41.65c-.1-6.19,4.49-9.44,10.48-7.51a11.51,11.51,0,0,0,3.12.13c0-1.14.38-2.38,0-3.4-.69-2.11-1.76-4.1-2.66-6.14a2.21,2.21,0,0,1,1-3.17c2.08-1.13,4.15-2.26,6.26-3.33,1.67-.85,2.86-.33,3.54,1.42.32.81.68,1.6,1.05,2.38,2.25,4.82,2.25,4.82-1.36,8.58-6.87,7.15-6.17,17.65,1.6,23.93,2.81,2.27,2.88,2.3,1.33,5.42-1.14,2.29-2.51,4.46-3.77,6.69-2.23-1-4.48-2-6.69-3.13-3.24-1.61-3.27-1.65-1.88-5,1.14-2.75,2.53-5.4,3.55-8.19.36-1,0-2.25-.11-3.4a16.28,16.28,0,0,0-3.38.39c-1.27.42-2.36,1.48-3.64,1.78C113.45,50.17,109.57,46.66,109.48,41.65Z"/><path class="cls-1" d="M142.88,38.68c-3.48,0-7,.07-10.43,0-2.5-.07-2.85-.7-1.81-3a12.32,12.32,0,0,1,8-6.76c7.45-2.16,12.7-.22,16.8,5.3a4.47,4.47,0,0,1,1,3.35c-.2.65-2,1-3.13,1.09-3.47.13-7,0-10.42,0Z"/><path class="cls-1" d="M143.33,55c-5.62-.08-12.13-4.6-13.48-9.56-.27-1-.15-2.82.46-3.19a2.84,2.84,0,0,1,4.14,1.16,22.46,22.46,0,0,0,2,3.11c3.84,4.48,9.76,4.48,13.59,0,.88-1,1.28-2.6,2.32-3.31s2.38-2.17,4-.92c1,.76.8,2.06.46,3.2C155.3,50.63,148.94,55.09,143.33,55Z"/><path class="cls-1" d="M143.63,14.42c1.47,2.84,3,5.65,4.4,8.53.78,1.59,0,2.29-1.63,2.34-2,.06-4,.17-6,.23-1.27,0-2.57-.44-2.07-1.83,1.15-3.21,2.66-6.29,4-9.42Z"/><path class="cls-1" d="M137.49,41.93c3.66,0,8.15,0,11.78,0a5.83,5.83,0,0,1-5.89,5C140.75,47,138.36,45.39,137.49,41.93Z"/><path class="cls-1" d="M147.77,59.38c-.32,2.21-2.08,2.85-3.79,2.85-1.5,0-3.94-.22-4.14-2.83C141.16,59.3,146.93,59.33,147.77,59.38Z"/><path class="cls-1" d="M146.52,74.36c0,2-1.12,3.18-2.84,3.24A3.28,3.28,0,0,1,140.37,74a3.18,3.18,0,0,1,3.09-3.08A3.14,3.14,0,0,1,146.52,74.36Z"/><path class="cls-1" d="M29.26,73.51A16.5,16.5,0,0,1,14.83,56.09c.52-8.44,6.59-15.26,13.64-15.54C15.7,47.8,13.51,64.63,29.26,73.51Z"/><path class="cls-1" d="M33.55,16.44c-.74.56-1.2,1.17-1.6,1.14s-.85-.66-1.28-1c.39-.39.74-1.05,1.17-1.11S32.75,15.94,33.55,16.44Z"/></g></g></svg>