<svg xmlns="http://www.w3.org/2000/svg" viewBox="0 0 349.19 466.91"><defs><style>.cls-1{fill:#5e471b;}.cls-2{fill:#5f481c;}.cls-3{fill:#cbc3b4;}.cls-4{fill:#5d461a;}.cls-5{fill:#5e471a;}.cls-6{fill:#5f491c;}</style></defs><title>Recurso 1</title><g id="Capa_2" data-name="Capa 2"><g id="Capa_1-2" data-name="Capa 1"><path class="cls-1" d="M175.8,0c2.45,1.52,3.73,3.93,4.88,6.44q5.59,12.22,11.21,24.44c2,4.27,3.94,8.56,6.07,12.76a62.88,62.88,0,0,0,3.71,5.7c1.58-2.82,3.07-5.32,4.4-7.9,2.41-4.7,4.73-9.46,7.09-14.19.05-.1.11-.2.17-.3,2-4.08,5.15-5.21,9.43-3.13,6.31,3.06,12.57,6.22,18.86,9.32L269,46.66c1.14.56,2.25,1.17,3.33,1.82,2.87,1.75,4,3.69,2.64,7.42-.9,2.54-2.06,5-3.2,7.43-3.15,6.71-6.36,13.39-9.58,20.14a9,9,0,0,0,5,.42,36.93,36.93,0,0,1,38.36,19.66,41.23,41.23,0,0,1,2.74,34.28,41.34,41.34,0,0,1-15.48,20.61,35.19,35.19,0,0,1-20.35,6.48,84.08,84.08,0,0,1-12.88-.71c-.33,0-.67-.05-1.25-.1.8,1.88,1.48,3.61,2.27,5.3,3.1,6.67,6.24,13.32,9.36,20,.93,2,1.91,3.93,2.77,5.93s1.44,4.28.18,6.46a7.5,7.5,0,0,1-3,2.78c-3.39,1.82-6.78,3.65-10.18,5.44q-15,7.84-29.94,15.65c-2.85,1.48-5.75,2.88-8.67,4.23a22.15,22.15,0,0,1-3.26,1.05,4.62,4.62,0,0,1-5.18-1.78,18.49,18.49,0,0,1-2.12-3.34c-3.21-6.68-6.35-13.39-9.51-20.09-.18-.37-.31-.75-.51-1.1a2.51,2.51,0,0,0-3.42-1.36c-2.19.69-4.36,1.46-6.56,2.07a38,38,0,0,1-9,1.4c-3,.08-6,.31-9,.19a66.46,66.46,0,0,1-14.08-2.11c-2.78-.71-5.57-1.34-8.53-2.06-.61,1.26-1.22,2.48-1.78,3.71-2.68,5.91-5.33,11.84-8,17.74a18.73,18.73,0,0,1-1.91,3.46c-2.26,3-4.05,4-8.58,2.88a30.16,30.16,0,0,1-5.67-2.47c-5-2.5-9.93-5.07-14.89-7.6q-11-5.59-22-11.18c-2.3-1.17-4.59-2.39-6.86-3.61a20.5,20.5,0,0,1-2-1.31c-2.67-1.91-3.34-3.79-2.43-7.07a48.22,48.22,0,0,1,3-7.32c3.42-7.35,6.92-14.65,10.35-22,.5-1.06.81-2.22,1.26-3.46-2,.29-3.91.58-5.78.8C72.14,166.74,61,163.89,51.8,154.75a43.82,43.82,0,0,1-10.64-16.32,39.59,39.59,0,0,1-2.22-12.83,43,43,0,0,1,3.63-18.44c5.82-13,15.69-21,29.63-23.88a51.11,51.11,0,0,1,11.64-1c.5,0,1,.1,1.68.16-.13-.42-.2-.77-.34-1.1Q80.8,71.63,76.4,61.89c-.73-1.62-1.52-3.22-2.25-4.84a20.16,20.16,0,0,1-1.09-2.89,3.78,3.78,0,0,1,1.55-4.4,40.43,40.43,0,0,1,3.69-2.21c5.89-3.12,11.79-6.2,17.69-9.3q12-6.3,24-12.58a40.12,40.12,0,0,1,8.19-3.6c3.63-1,5.85-.19,7.68,3.1,2.47,4.48,4.79,9,7.15,13.58,1.33,2.55,2.61,5.12,4,7.76a2.3,2.3,0,0,0,.54-.42,67.88,67.88,0,0,0,6.83-11.76c3-6.81,6.2-13.58,9.32-20.37.76-1.67,1.62-3.3,2.38-5,1.66-3.67,3.83-6.9,7.39-9Zm84.1,56.77a2,2,0,0,0-.39-.33l-14.66-7.68-13.11-6.91c-2.19-1.14-4.38-2.28-6.6-3.37-1.36-.67-2.1-.42-2.87.87a17.8,17.8,0,0,0-.89,1.87Q216.15,53,210.89,64.83c-1,2.2-2,4.38-2.95,6.61s-.63,3.23,1.1,4.73a27.88,27.88,0,0,0,2.66,1.9,57.08,57.08,0,0,1,16.19,16.25A54.76,54.76,0,0,1,237,129.83a62.71,62.71,0,0,1-3.84,16.72,51.81,51.81,0,0,1-20.76,25.91c-1.93,1.24-4,2.32-5.95,3.48-2.18,1.27-2.7,2.75-1.77,5.06.24.58.53,1.14.8,1.72,2.55,5.46,5.15,10.9,7.66,16.39,1.92,4.17,3.72,8.4,5.6,12.59,1.28,2.84,2.77,4.07,6.27,2.28,2.2-1.12,4.37-2.31,6.56-3.44,6.44-3.32,12.88-6.61,19.32-9.92,1.52-.79,3.08-1.54,4.53-2.46a3.22,3.22,0,0,0,1.49-4.17,24.75,24.75,0,0,0-1.08-2.91c-3.89-8.57-7.86-17.12-11.69-25.72-2.22-5-4.23-10.05-6.35-15.07a5.58,5.58,0,0,1,.19-5,21.25,21.25,0,0,1,2.12-3.32c2.08-2.56,4.78-2.44,7.14-.67,3.54,2.66,7.08,5.32,10.74,7.8a21.57,21.57,0,0,0,13.3,4,24.72,24.72,0,0,0,18.61-9.43,32.18,32.18,0,0,0,7.29-16.48,26,26,0,0,0-5.07-20.13,30.57,30.57,0,0,0-13-9.94,20.72,20.72,0,0,0-11.28-1.47,31.29,31.29,0,0,0-7,2.42c-2.49,1-5,2.15-7.53,2.93a6.94,6.94,0,0,1-7.62-2.28c-2-2.26-1.88-4.8-.79-7.42,1.49-3.61,2.92-7.24,4.49-10.82C252.82,72.62,256.35,64.76,259.9,56.77Zm-116.56,17c-1.65-3.44-3.28-6.73-4.82-10.07-3.4-7.41-6.74-14.85-10.12-22.27-.23-.52-.47-1-.75-1.55-.88-1.59-1.56-1.84-3.22-1.19a6.11,6.11,0,0,0-.64.26c-2.25,1.15-4.49,2.32-6.75,3.45-6.63,3.33-13.27,6.63-19.89,10-1.85.93-3.66,1.92-5.5,2.87a2.16,2.16,0,0,0-1.18,2.6,14.69,14.69,0,0,0,.93,2.76c4,9,8,17.93,12,26.9a36.52,36.52,0,0,1,2,5.3,6,6,0,0,1-2.23,6.6A7.92,7.92,0,0,1,95,100.68a35.7,35.7,0,0,1-4.52-2.11,25.43,25.43,0,0,0-11.3-3.26c-7.62-.24-13.62,3.1-18.69,8.4a25.9,25.9,0,0,0-5.68,10.53c-1.35,4.36-2.44,8.77-1.91,13.38,1,8.68,4.93,15.78,12.12,20.75,7,4.82,14.58,5.92,22.58,2.67a29.45,29.45,0,0,0,9.53-6.42,11,11,0,0,1,9.11-3.18c4.14.34,6.9,2.59,6.17,7.84a17.22,17.22,0,0,1-1.37,4.59C105.66,166,100.25,178,94.88,190.07c-.65,1.46-1.13,3-1.71,4.49A2.1,2.1,0,0,0,93.9,197a7.6,7.6,0,0,0,1.55,1.09q3.39,1.88,6.81,3.7,9.94,5.34,19.9,10.65c1.17.62,2.32,1.28,3.53,1.81,2.2,1,3.59.45,4.71-1.68.4-.76.67-1.59,1-2.37l12.12-26.67c.8-1.76,1.56-3.53,2.35-5.32-.33-.23-.5-.37-.7-.48a70.31,70.31,0,0,1-16.61-12.5,53.31,53.31,0,0,1-11.77-18.08,61.88,61.88,0,0,1-3.1-32.86,50.76,50.76,0,0,1,7.12-18.72A64.4,64.4,0,0,1,136.7,78.5C138.84,76.86,141.09,75.37,143.34,73.78ZM174.6,114.1H219a13.54,13.54,0,0,0,1.56,0c2-.21,2.67-1.2,2.06-3-.83-2.51-1.66-5-2.67-7.46a21.6,21.6,0,0,0-2.4-4.16,55,55,0,0,0-7.79-8.71,51.85,51.85,0,0,0-14-9.06,56.79,56.79,0,0,0-16.93-4.31,45.82,45.82,0,0,0-17.37,1.4A59.74,59.74,0,0,0,141.2,89.1a39.22,39.22,0,0,0-13.55,18.11,27,27,0,0,0-1.19,4.31,2,2,0,0,0,1.88,2.53,10.92,10.92,0,0,0,1.72,0Zm49.48,13c-2.87-.2-5.56-.59-8.23-.54-4.22.08-7.73,1.67-9.74,5.65a32.61,32.61,0,0,0-1.33,3.54,7.49,7.49,0,0,1-.49,1.45,41,41,0,0,1-7.92,9.93c-8.54,7.28-18.3,9.78-29.18,7.24a31.08,31.08,0,0,1-19.79-13.91c-1.88-2.94-3.42-6.1-5.14-9.16-.54-1-1.11-1.87-1.72-2.78a3,3,0,0,0-2.27-1.4c-1.43-.12-2.86-.22-4.29-.24-2.59,0-5.18,0-7.77,0h-1.65a3.28,3.28,0,0,0-.15.68c.06.57.16,1.13.21,1.7a44,44,0,0,0,4.48,15.63,49,49,0,0,0,12.05,15.57,50.29,50.29,0,0,0,10.89,7.2,51.13,51.13,0,0,0,23.46,5.23,49.34,49.34,0,0,0,15.35-2.69,51.9,51.9,0,0,0,22-14.55,42.44,42.44,0,0,0,10.34-19.58A39.76,39.76,0,0,0,224.08,127.13ZM174,25.46c-.47,1-.87,1.71-1.22,2.48q-3.19,7-6.36,13.94-4.8,10.59-9.56,21.21a6.94,6.94,0,0,0-.44,2,1.7,1.7,0,0,0,1.3,2,9,9,0,0,0,2.52.38q13.9,0,27.8-.11c1.29,0,2.58-.23,4-.36-.37-2.17-.46-4.2-1.38-6.13q-7.92-16.74-15.75-33.53C174.63,26.74,174.36,26.19,174,25.46ZM157.62,127.13v-.22c-.69,0-1.38,0-2.07,0a3.28,3.28,0,0,0-.66.19c-1.4.38-1.84.78-1.54,2.17a11.73,11.73,0,0,0,1.56,3.94,28.63,28.63,0,0,0,12.85,10.55,18.72,18.72,0,0,0,9.08,1.11,20,20,0,0,0,8.65-2.59c4.81-2.78,7.9-7.06,10.32-11.92a4.24,4.24,0,0,0,.4-1.31,1.44,1.44,0,0,0-1.27-1.88,12.14,12.14,0,0,0-2.55-.27c-6.94,0-13.89.16-20.83.21C166.91,127.15,162.26,127.13,157.62,127.13Zm17.67,57c-3.91,0-7.82,0-11.73,0-2,0-3.13.76-3.56,2.37a39.05,39.05,0,0,0-.8,3.87,2.06,2.06,0,0,0,1.26,2.39,7.41,7.41,0,0,0,1.47.47,50.13,50.13,0,0,0,18.57,1.27c2.89-.39,5.75-1,8.6-1.63,1.58-.34,1.94-1,1.83-2.6a25,25,0,0,0-.34-2.72c-.42-2.27-1.4-3.5-4.09-3.45C182.76,184.21,179,184.15,175.29,184.15Z"/><path class="cls-2" d="M349.19,408.16c-.75,2.72-2.57,4.81-4.22,7-4.84,6.34-9.67,12.7-14.67,18.93a105,105,0,0,1-12.46,13.11,53.06,53.06,0,0,1-4.82,3.61,8.36,8.36,0,0,1-6.11,1.27,5.36,5.36,0,0,1-4.31-3.57,45,45,0,0,1-1.33-4.54l-.76.68c-1.88,1.77-3.69,3.63-5.66,5.29a9.72,9.72,0,0,1-6.87,2.36c-5.38-.36-10.85-3.24-12-9.91a59.15,59.15,0,0,1-.36-7.9c0-.43,0-.86,0-1.7-1.76,1.88-3.26,3.5-4.79,5.1-4,4.19-8.05,8.38-13.11,11.37a19.29,19.29,0,0,1-10.25,3.08c-6.68-.11-11.37-3.86-12.18-10.87-.35-3-.56-5.93-.84-9-.64.06-.94.68-1.35,1.09a89.71,89.71,0,0,1-11.27,9.87,46.43,46.43,0,0,1-20.66,8.48,31.64,31.64,0,0,1-6.88,0,7.09,7.09,0,0,1-5.74-3.93c-2-3.57-3.42-7.31-3.09-11.48a47.7,47.7,0,0,1,.88-4.89c.05-.31.11-.62.23-1.29-.55.49-.85.72-1.1,1-4.18,4.67-8.32,9.37-13.31,13.22a39,39,0,0,1-13,7c-4.88,1.39-9.42.81-13.39-2.6a13.48,13.48,0,0,1-4.89-10.42,54.38,54.38,0,0,1,.49-5.82c0-.41.05-.83.11-1.64a9,9,0,0,0-1.05.82c-3.22,3.66-6.36,7.41-9.68,11a42,42,0,0,1-9.74,7.9,8.25,8.25,0,0,1-7.1.91,6.15,6.15,0,0,1-4-8.28c.81-2.08,1.82-4.09,2.78-6.11s2-4.19,2.91-6.45a3.48,3.48,0,0,0-.69.5c-2.53,3-5,6-7.58,8.93A46.56,46.56,0,0,1,94,451a12.18,12.18,0,0,1-6.88,1.1,4.19,4.19,0,0,1-2.77-1.6,8,8,0,0,1-1.21-9.14C87,433,91.72,425.08,96.37,417.15c2.23-3.82,4.48-7.64,6.59-11.52a30.37,30.37,0,0,0,1.69-4.5c.35-1,.59-2,1-2.94.76-1.74,1.68-2.12,3.41-1.42a15.64,15.64,0,0,1,2.46,1.22c2.5,1.56,3.44,3.65,2.58,6.47a32.9,32.9,0,0,1-2.64,6.34c-3.77,6.85-7.66,13.62-11.56,20.39-1.17,2-2.5,4-3.74,6a16.44,16.44,0,0,0-1.4,2.57c-.66,1.64-1.19,3.34-1.81,5.1a4,4,0,0,0,4.41.11,22.47,22.47,0,0,0,4-3.23c2.08-2.05,4-4.26,6.06-6.36a186.25,186.25,0,0,0,13.22-15.67c2.63-3.41,5.1-6.94,7.68-10.4A23.92,23.92,0,0,0,132,401c.27-1,.49-2,.79-3,.46-1.56,1.23-2.07,2.69-1.48a19.82,19.82,0,0,1,4.2,2.28,4.61,4.61,0,0,1,1.72,4.73,23.68,23.68,0,0,1-2.52,6.75c-4.4,9.06-9.56,17.69-14.78,26.29a28.19,28.19,0,0,1-1.7,2.8,4.62,4.62,0,0,0-.59,4.91,3.1,3.1,0,0,0,2.86-.59c2.5-2.2,5.06-4.33,7.47-6.63,4.23-4,7.54-8.81,11-13.44,3.28-4.36,6.43-8.84,9.89-13a39.7,39.7,0,0,1,18.54-13,21.31,21.31,0,0,1,11.52-.84,4.91,4.91,0,0,1,4.19,4.92c.54,6.54-2.26,11.47-7.23,15.35a35.59,35.59,0,0,1-17.49,7.58c-.85.11-1.72.13-2.58.17a3.87,3.87,0,0,0-3.83,2.87,83.5,83.5,0,0,0-3.39,13.69,6.3,6.3,0,0,0,7.51,7.05,12,12,0,0,0,3.63-1.48,78.16,78.16,0,0,0,10.5-8.08c9.77-8.65,17.11-19.17,23.44-30.47q12.18-21.72,24.35-43.45a17.55,17.55,0,0,0,1.23-3.19c.58-1.76,1.64-2.35,3.28-1.54a11.26,11.26,0,0,1,4.45,3.73,5.75,5.75,0,0,1,.27,6.22c-.93,1.78-2,3.51-3,5.19-5.16,7.9-10.33,15.79-16,23.32a17.76,17.76,0,0,0-1.19,1.69,7.84,7.84,0,0,0-.46,1.2l.28.2,1.56-1.23a19.1,19.1,0,0,1,7.39-3.94c3.29-.77,6.39-.55,9,1.86A11.17,11.17,0,0,1,232.1,405a28.43,28.43,0,0,1-3.45,19.45c-2.62,4.74-6,9-9.26,13.28-1,1.29-2,2.54-2.92,3.84-.42.58-.73,1.23-1.23,2.08.61,0,.93.1,1.1,0q5.08-3.39,10.13-6.86a7.51,7.51,0,0,0,1.14-1.05c1.4-1.44,2.74-2.92,4.18-4.32a21.74,21.74,0,0,0,5.15-8.66c1.76-4.92,3.33-9.92,5.36-14.73,5.15-12.16,11.48-23.68,19.84-34a52,52,0,0,1,13.39-12,17.83,17.83,0,0,1,11.22-2.58c2.88.3,5.33,1.46,6.53,4.36a8.5,8.5,0,0,1,.13,5.23A49,49,0,0,1,287,384a110.3,110.3,0,0,1-12.5,16.22,221.06,221.06,0,0,1-20,18.92c-2.06,1.74-4.06,3.55-6.1,5.31a6.12,6.12,0,0,0-1.81,2.89,23.2,23.2,0,0,0-1,9.36c.58,6.24,6,9.67,11.94,7.48A16.9,16.9,0,0,0,261.4,442a73.47,73.47,0,0,0,21.17-24,49.11,49.11,0,0,1,7.79-10.49,38.79,38.79,0,0,1,19.92-11,13.48,13.48,0,0,1,6.79.21,8.31,8.31,0,0,1,6.24,8.13,52.81,52.81,0,0,1-.45,5.31c-.18,2.05.35,3,2.17,3.79,1,.42,1.9.81,2.85,1.22.09,0,.13.18.27.37-.2.33-.41.73-.66,1.09-3.8,5.48-7.66,10.92-11.36,16.46-1.36,2-2.29,4.37-3.45,6.55-.79,1.48-.08,2.9,0,4.41,2,.2,3.77,0,5.25-1.59,6.86-7.35,13.95-14.5,20.31-22.29,2.9-3.56,5.53-7.35,8.3-11A19.79,19.79,0,0,1,348,407.7c.46-.5.82-.1,1.2.11Zm-31.91-.47a26.48,26.48,0,0,0-.67-3.35,3,3,0,0,0-3.19-2.1,9.88,9.88,0,0,0-1.69.26c-5.74,1.15-10.12,4.52-13.84,8.79a59.23,59.23,0,0,0-11.39,20.87,38.41,38.41,0,0,0-1.83,11.67c0,2.84,1.53,4.3,4.29,4.11a10.08,10.08,0,0,0,5.93-2.47,56.52,56.52,0,0,0,8.75-9.21c2.16-2.82,4.22-5.73,6.31-8.61.44-.6.9-1.25.34-2-1.18-1.6-.61-3,.48-4.34s2.42-3.06,3.5-4.68A17.55,17.55,0,0,0,317.28,407.69Zm-93.5-1.14c-.09-.84-.15-2.17-.4-3.45-.58-2.94-2.92-4-5.56-2.69-.41.21-.8.46-1.19.7A33.6,33.6,0,0,0,209,408a93,93,0,0,0-14.31,22.44,54.76,54.76,0,0,0-2.43,6.43,12.55,12.55,0,0,0,.3,8.44c.84,2.16,2.43,2.89,4.55,2a16.6,16.6,0,0,0,3.39-2c9-6.93,15.56-15.85,20.4-26.07A31.12,31.12,0,0,0,223.78,406.55Zm25.12,12.51c.95.41,1.37-.21,1.8-.59,4.16-3.6,8.4-7.14,12.41-10.9,2.84-2.67,5.45-5.59,8-8.53a141.21,141.21,0,0,0,12-15.94A95.59,95.59,0,0,0,290,369.62a6.18,6.18,0,0,0,.3-2.69c0-.42-.46-1.14-.78-1.18-1.68-.19-3.44-.54-4.9.78-.94.85-1.86,1.71-2.81,2.55-3.1,2.73-6.41,5.27-8.82,8.67-3,4.17-5.87,8.38-8.62,12.69-5.59,8.76-11.27,17.48-15.07,27.23C249.16,418.12,249.05,418.59,248.9,419.06Zm-89.6,2.34c4.33-.9,8.23-1.54,11.84-3.29,5-2.41,8.91-5.88,11.1-11.06a10,10,0,0,0,.81-3.65c0-2.39-1.52-3.43-3.79-2.7a23.54,23.54,0,0,0-11.82,7.95c-2.55,3.32-4.92,6.79-7.29,10.23A10.94,10.94,0,0,0,159.3,421.4Z"/><path class="cls-2" d="M22.45,466.91a14.7,14.7,0,0,1-5.05-3.41c-3.39-4-4.82-8.4-3.09-13.55a43.4,43.4,0,0,1,6.43-12.14c4.24-5.71,8.64-11.32,13-17,.37-.49.72-1,1.2-1.64l-4.3-1.66c-1.76-.7-3.56-1.31-5.26-2.13a10.94,10.94,0,0,1-6.61-9.73,10.62,10.62,0,0,1,1.77-6.38A39.37,39.37,0,0,1,44.4,382.1a23.67,23.67,0,0,1,7.36-.59,6.73,6.73,0,0,1,5.88,5.08,15,15,0,0,1-.1,8.51,42.81,42.81,0,0,1-2.74,6.48c-1.25,2.45-2.73,4.79-4.11,7.18-.25.43-.46.88-.78,1.49a60.47,60.47,0,0,0,10.23-1.44A73.21,73.21,0,0,0,89.51,395,55.82,55.82,0,0,0,101,382.94a30.26,30.26,0,0,0,5.42-13.81c.72-6.06-1.85-10.47-6.76-13.65a23.25,23.25,0,0,0-12.28-4c-4-.07-8,0-12,.05-3.39.07-6.77.25-10.15.4-1.48.06-3,.17-4.71.27,0-2-.08-3.86,0-5.72.06-.94,1.4-1.73,2.66-1.82,2.05-.15,4.11-.34,6.17-.43,4.07-.16,8.15-.41,12.22-.34a36.25,36.25,0,0,1,19.56,5.74c4.94,3.21,7.75,7.89,9.31,13.43a25.25,25.25,0,0,1-.41,14.1,49.77,49.77,0,0,1-10.86,20,60.4,60.4,0,0,1-15,12,77.54,77.54,0,0,1-19.32,8.11,62.92,62.92,0,0,1-14.77,2.12c-1.66,0-3.32.16-5,.22a3.05,3.05,0,0,0-2.66,1.62c-3.52,5.86-7.15,11.66-10.57,17.59a64.82,64.82,0,0,0-4.79,9.71c-1.18,3.2-1.66,6.66-2.5,10a7.28,7.28,0,0,0,.19,4.87,2.87,2.87,0,0,1-.59,3.61Zm15.66-56c3,0,4.74-1.51,6-3.76A16.43,16.43,0,0,1,45.24,405a43.33,43.33,0,0,0,4.9-8.5,23.47,23.47,0,0,0,2-7.44c.14-1.59-.45-2.3-2-2.35a23.15,23.15,0,0,0-4.64.22c-6.54,1.17-12.18,4.32-17.36,8.35a16.53,16.53,0,0,0-5.65,8.07c-1,3.1.25,5.22,3.45,5.8,2.19.4,4.4.7,6.62,1C34.51,410.44,36.44,410.66,38.11,410.87Z"/><path class="cls-3" d="M0,393l.38,0,.06,2.33-.44.07Z"/><path class="cls-4" d="M126.06,324.4V282.08h22.07v76.56c-.85.05-1.64.15-2.43.15-5.35,0-10.7,0-16,0a5.62,5.62,0,0,1-4.75-2.3q-12.5-15.93-25-31.83c-2.49-3.15-5.13-6.18-7.71-9.26a1,1,0,0,0-.3-.16.75.75,0,0,0-.15.09s-.1.07-.11.11,0,.34,0,.51l0,24.71a.52.52,0,0,1,0,.17,3.46,3.46,0,0,1-.27.38l-21.46-1.1V281.65c1.76-.13,3.51-.3,5.26-.38,3.32-.14,6.65-.23,10-.34a10.55,10.55,0,0,1,9.13,4.28q8.22,10.52,16.54,21,6.74,8.5,13.54,17c.41.52.89,1,1.34,1.47Z"/><path class="cls-5" d="M289.15,310.62v-2q0-11.66,0-23.32a9.93,9.93,0,0,1,.15-1.88c.29-1.47.82-1.94,2.32-2,1.09-.05,2.18,0,3.27,0h12.44c1.91,0,2.45.53,2.54,2.43,0,.41,0,.81,0,1.21v69.62c0,.41,0,.81,0,1.21-.08,1.87-.64,2.45-2.54,2.48-2.71,0-5.41,0-8.12,0h-8.46c-.27,0-.55,0-1-.05V327.91c-1.39-.42-24.93-.58-29.4-.23v31c-.65,0-1.09.09-1.54.09H243.48c-2.49,0-3.13-.62-3.14-3.19,0-3.39.1-6.79.1-10.18q0-25.65,0-51.31v-12h20v1.85c0,8.12,0,16.24,0,24.36,0,2.31,1,2.73,2.75,2.71,6.28,0,12.55,0,18.82,0C284.31,311,286.59,310.75,289.15,310.62Z"/><path class="cls-5" d="M234.23,358.79h-18c-2.69,0-3.44-.5-4.31-3s-1.82-5.32-2.67-8c-.79-2.46-1.94-3.28-4.78-3.26l-18.11.11c-1,0-2.07-.1-3.1-.1-2.56,0-3.74.83-4.75,3.19-1.14,2.7-2.34,5.37-3.52,8.05-.11.26-.26.51-.39.77a3.82,3.82,0,0,1-3.73,2.27c-2.76,0-5.52,0-8.28,0H153.3a13.28,13.28,0,0,1,.38-1.39q6.69-17.36,13.39-34.71,7.16-18.46,14.34-36.92.27-.72.57-1.44a4.47,4.47,0,0,1,4.5-3.07c5.35,0,10.7,0,16.05,0,2.24,0,3.12.59,3.89,2.68,2.79,7.59,5.5,15.22,8.36,22.79,3.59,9.51,7.3,19,10.93,28.45q3.79,9.9,7.5,19.81C233.62,356.11,233.84,357.3,234.23,358.79Zm-39.66-52.32-.6,0c-2.76,7.54-5.53,15.09-8.33,22.72h16.25C199.45,321.53,197,314,194.57,306.47Z"/><path class="cls-5" d="M57.66,358.64H36.38c-.11-1.19-.27-2.35-.32-3.52,0-.74.14-1.48.14-2.22q0-27,0-53.91c0-4.71-.15-9.43-.21-14.14a9.14,9.14,0,0,1,.17-1.88c.31-1.68,1-2.26,2.64-2.24l15.67.18c2.66,0,3.49.83,3.49,3.53q0,23.74,0,47.51c0,8.34-.14,16.68-.23,25C57.73,357.48,57.69,358,57.66,358.64Z"/><path class="cls-1" d="M199.71,241.55c-.09,6.15-1.62,11.82-5.63,16.62a24.27,24.27,0,0,1-16.31,8.7,23.74,23.74,0,0,1-18.06-5.05,24.31,24.31,0,0,1-9.5-16.78c-1.1-8.9,1.79-16.42,8.3-22.5a22,22,0,0,1,12.75-5.93,29.53,29.53,0,0,1,9.57.32c8.1,1.76,13.48,6.8,16.78,14.23A24.4,24.4,0,0,1,199.71,241.55Zm-24.94-12.79a19.87,19.87,0,0,0-3.24.78,13.26,13.26,0,0,0-8.34,12.94c.15,5.61,3.24,9.7,8.41,12a8.1,8.1,0,0,0,6.66.06,13.78,13.78,0,0,0,7.82-8,8.49,8.49,0,0,0,.67-3.35,17.67,17.67,0,0,0-2.36-8.53A11.3,11.3,0,0,0,174.77,228.76Z"/><path class="cls-2" d="M.44,395.3.38,393c2-7.14,6.06-13.05,10.72-18.63C16.33,368.09,22.72,363.1,29,358c1-.82,2.05-1.65,3-2.41.94.17,1.1.7,1.08,1.41,0,1.43,0,2.87,0,4.53l5,.41c-.73.56-1.18.94-1.67,1.26A86.13,86.13,0,0,0,21.36,376c-6.16,6.46-10.83,13.81-13,22.57a11.54,11.54,0,0,1-.51,1.64c-.66,1.53-1.76,1.93-3.19,1.06a7.79,7.79,0,0,1-4-5.35C.6,395.72.5,395.51.44,395.3Z"/><path class="cls-6" d="M91.07,358.8H72.84c-.35,0-.69,0-1,0a2.22,2.22,0,0,1-2.32-2.06,2.39,2.39,0,0,1,2.38-2.54c5,.11,10.1.25,15.15.38l1.89.07c2.14.09,2.86,1,2.41,3.12C91.25,358,91.18,358.32,91.07,358.8Z"/></g></g></svg>