<svg xmlns="http://www.w3.org/2000/svg" viewBox="0 0 570.98 237.23"><defs><style>.cls-1{fill:#fff;}</style></defs><title>Recurso 1</title><g id="Capa_2" data-name="Capa 2"><g id="Capa_1-2" data-name="Capa 1"><path class="cls-1" d="M121.67,0a8,8,0,0,1,3.68,4.09c1.47,3.14,2.87,6.32,4.33,9.47q3.63,7.86,7.3,15.71c1.4,3,2.76,6,4.3,9,1,1.84,2.21,3.53,3.47,5.52,1.06-1.86,2.05-3.43,2.89-5.07,2-3.82,3.83-7.68,5.78-11.51.78-1.55,1.61-3.08,2.52-4.56,1.41-2.29,3.43-2.88,6.12-2.13A20.88,20.88,0,0,1,165.58,22c5.23,2.59,10.43,5.22,15.66,7.81,7.88,3.9,15.78,7.77,23.66,11.68a31.06,31.06,0,0,1,3.56,2.1,4.13,4.13,0,0,1,1.81,4.94,40.45,40.45,0,0,1-2.12,5.41c-2.52,5.42-5.13,10.8-7.7,16.2-.63,1.33-1.24,2.67-1.86,4,2.13.88,4.21.32,6.26.14a33.91,33.91,0,0,1,14.91,2A31,31,0,0,1,231,83.54a35.7,35.7,0,0,1,8.61,13.64c4.48,13,2.31,25-5.8,35.9a33.13,33.13,0,0,1-15.24,11.44,31.41,31.41,0,0,1-10.19,1.93,68,68,0,0,1-12.67-.74c-.09,0-.19.07-.37.13a8,8,0,0,0,.3,1l9.93,21.41c.78,1.67,1.58,3.33,2.35,5a11.8,11.8,0,0,1,.49,1.29c1,3.11.19,5.38-2.67,7s-6,3.27-9.06,4.86q-13.44,7.05-26.91,14.06c-2.59,1.34-5.21,2.59-7.86,3.8a13.77,13.77,0,0,1-3.07.93,4,4,0,0,1-4.11-1.49,17.6,17.6,0,0,1-2.06-3.22c-2.86-5.94-5.65-11.92-8.46-17.88-.13-.28-.25-.56-.4-.83a2.22,2.22,0,0,0-3-1.22c-1.76.56-3.48,1.2-5.26,1.68a52.31,52.31,0,0,1-12,1.57c-7.45.26-14.65-1.13-21.79-3-.74-.2-1.49-.35-2.24-.52a7.33,7.33,0,0,0-.73-.12c-.88,1.88-1.79,3.76-2.65,5.66-2,4.51-4,9-6.14,13.53a20.79,20.79,0,0,1-2.32,3.76c-1.54,2-3.71,2.36-6.07,1.93a22.22,22.22,0,0,1-5.93-2.47c-2.69-1.36-5.35-2.79-8-4.15q-11.83-6-23.68-12c-2.1-1.07-4.19-2.13-6.28-3.23-.76-.4-1.49-.88-2.22-1.35-2.86-1.85-3.61-4-2.35-7.55.66-1.87,1.54-3.67,2.38-5.47,3.06-6.53,6.16-13,9.22-19.55.43-.92.71-1.91,1.14-3.08-.57,0-1,0-1.41.11a50.55,50.55,0,0,1-9.91.82,31.92,31.92,0,0,1-20.62-7.46A38.48,38.48,0,0,1,2,123,35.85,35.85,0,0,1,.16,107.46,38.23,38.23,0,0,1,5.22,91.23,35,35,0,0,1,27.44,74.39a44.64,44.64,0,0,1,14-1.24,8.56,8.56,0,0,0-.3-1Q37.27,63.55,33.4,55c-.7-1.54-1.51-3-2.15-4.58a16.87,16.87,0,0,1-.93-3.21,2.87,2.87,0,0,1,1.4-3,43.05,43.05,0,0,1,3.82-2.26c5.38-2.84,10.77-5.64,16.16-8.46,7.89-4.12,15.75-8.28,23.67-12.33a25.63,25.63,0,0,1,5.18-1.81,4.22,4.22,0,0,1,4.55,1.49A13.37,13.37,0,0,1,86.66,23c2.38,4.53,4.71,9.08,7.06,13.61.79,1.54,1.6,3.06,2.46,4.69a59.17,59.17,0,0,0,6.44-10.88c3.69-8.09,7.49-16.13,11.26-24.17a13.87,13.87,0,0,1,3.9-5,19.11,19.11,0,0,1,2-1.24Zm75,50.32-1.41-.76-7.21-3.76q-10.66-5.58-21.33-11.17c-2.63-1.37-3.07-1.15-4.31,1.66Q157.72,46.93,153,57.56c-.91,2-1.87,4.09-2.74,6.16a2.81,2.81,0,0,0,.8,3.58c.6.48,1.19,1,1.83,1.39a54.41,54.41,0,0,1,9,7.34,50.5,50.5,0,0,1,8.4,11.28,48.69,48.69,0,0,1,6.1,22.86,53.77,53.77,0,0,1-3.72,20.21,45.82,45.82,0,0,1-18.47,22.83c-1.73,1.1-3.54,2-5.3,3.09s-2.24,2.43-1.46,4.43c.13.33.26.67.41,1,.71,1.47,1.45,2.93,2.13,4.42q4.93,10.8,9.83,21.62c1.42,3.15,2.85,3.75,5.89,2.2,2.78-1.42,5.49-3,8.26-4.38,4.77-2.46,9.57-4.86,14.35-7.29,1.32-.67,2.67-1.3,3.94-2.07,1.84-1.12,2.22-2.26,1.56-4.27a24.53,24.53,0,0,0-.88-2.29c-3.68-8.09-7.41-16.16-11-24.27-1.77-4-3.35-8-5-12a4.11,4.11,0,0,1-.46-1.92,8.58,8.58,0,0,1,4.09-6.67c1.64-1,3.26-.42,4.72.66,2.71,2,5.41,4,8.15,6,4.4,3.18,9.21,5,14.75,4.41a21.37,21.37,0,0,0,10.12-3.68,27.32,27.32,0,0,0,10.44-14.55,24.55,24.55,0,0,0-.77-18.09,25.62,25.62,0,0,0-10-11.12c-6.61-4.19-13.46-5.07-20.64-1.31a39.33,39.33,0,0,1-5.66,2.32,8.83,8.83,0,0,1-3.45.45,6,6,0,0,1-5-8.67c2.15-5,4.17-10.1,6.37-15.1C191.82,60.86,194.25,55.69,196.69,50.32ZM93,65.46c-1-2-2-3.83-2.9-5.73C86.5,51.93,83,44.1,79.4,36.3c-1.08-2.38-1.5-3-4.6-1.45-7.66,3.88-15.35,7.72-23,11.58-1.6.81-3.21,1.59-4.75,2.5-1.35.8-1.52,1.44-1.05,3a15.57,15.57,0,0,0,.7,1.87c3.06,6.85,6.14,13.7,9.19,20.56C57,76.75,58.14,79.15,59,81.66c1.24,3.7-.57,6.54-3.95,7.79a8.24,8.24,0,0,1-6.65-.67c-1.61-.78-3.18-1.66-4.81-2.39-9.13-4.07-17.94-1.23-24.49,5.72a22.76,22.76,0,0,0-4.87,9c-1.36,4.31-2.48,8.66-1.71,13.24,1.31,7.88,5.12,14.19,12.05,18.33a20,20,0,0,0,17.82,1.84,26.82,26.82,0,0,0,8.43-5.2,25.12,25.12,0,0,1,2.56-2.19A10,10,0,0,1,61,125.77c2.91.57,4.38,2.47,4.42,5.42a6.44,6.44,0,0,1-.17,2,42.81,42.81,0,0,1-1.6,4.45Q58.06,150.3,52.39,163c-1.27,2.84-2.56,5.68-3.75,8.55-.94,2.26-.66,3.09,1.43,4.31s4.12,2.26,6.19,3.37q8.93,4.77,17.86,9.53a33.77,33.77,0,0,0,3.58,1.74,2.42,2.42,0,0,0,3.38-1.17,22.66,22.66,0,0,0,1.18-2.49l12.3-27.06c.22-.49.39-1,.57-1.48-.27-.19-.39-.3-.52-.37a62.88,62.88,0,0,1-14.9-11.2,47.7,47.7,0,0,1-12-20.75,56.27,56.27,0,0,1-1.77-19.72,46.93,46.93,0,0,1,6.92-21.34,58.06,58.06,0,0,1,15.7-16.38C90,67.47,91.42,66.52,93,65.46Zm27.72,35.87h39.47a10.33,10.33,0,0,0,1.68-.09c1.23-.22,2.2-.85,1.59-2.64s-1.3-3.87-2.05-5.77a17.89,17.89,0,0,0-1.81-3.7A50.29,50.29,0,0,0,151,79.6a46.51,46.51,0,0,0-22.07-10.41,43.15,43.15,0,0,0-18.24.21,52.55,52.55,0,0,0-15.13,6.53,39.84,39.84,0,0,0-14.14,14,29.48,29.48,0,0,0-3.5,8.95,1.76,1.76,0,0,0,1.5,2.37,7.83,7.83,0,0,0,1.68.11Zm44,11.6c-2.86-.24-5.63-.81-8.44-.48-3.29.4-6,1.85-7.47,4.92a32.61,32.61,0,0,0-1.27,3.43,5.64,5.64,0,0,1-.35,1,34.08,34.08,0,0,1-7.84,9.55A29.26,29.26,0,0,1,98.07,127a56.33,56.33,0,0,1-5.88-9.86c-.49-.95-1-1.87-1.62-2.77a3.28,3.28,0,0,0-3-1.56c-3.43,0-6.85-.08-10.28-.11-.39,0-.78.07-1.19.1,0,.53,0,.94,0,1.34A41.9,41.9,0,0,0,88.26,140a44.46,44.46,0,0,0,19.51,11.71,44,44,0,0,0,27.14-.45A46,46,0,0,0,154.7,138.3a38.05,38.05,0,0,0,9.19-17.08A29.28,29.28,0,0,0,164.68,112.93ZM120.23,22.42c-.46.95-.78,1.58-1.08,2.22-1,2.18-2,4.35-3,6.54q-5.52,12.1-11,24.23a8,8,0,0,0-.62,1.88A1.83,1.83,0,0,0,106,59.6a7.73,7.73,0,0,0,1.5.26,8.42,8.42,0,0,0,1.23,0q12-.09,24.07-.19c1.1,0,2.2-.14,3.37-.22a15.19,15.19,0,0,0-1.09-5.35C130.15,43.67,125.28,33.22,120.23,22.42Zm-14.52,90.39v-.17a22.07,22.07,0,0,0-2.45.16c-1.28.23-1.81.92-1.5,2.18a12.45,12.45,0,0,0,1.28,3.09,20.48,20.48,0,0,0,4.75,5.37c4.31,3.59,9,5.87,14.87,5.25a18.9,18.9,0,0,0,10.12-4,26.15,26.15,0,0,0,6.68-8.68,5.86,5.86,0,0,0,.47-1.29,1.32,1.32,0,0,0-1.09-1.84,9,9,0,0,0-2.13-.21c-5.62,0-11.25.08-16.88.11C115.12,112.83,110.42,112.81,105.71,112.81Zm15.58,50.67H119.9c-3,0-5.93,0-8.9,0a3.06,3.06,0,0,0-3.44,2.77c-.19.85-.34,1.7-.52,2.55a2,2,0,0,0,1.36,2.53,9.75,9.75,0,0,0,1.17.34A50.79,50.79,0,0,0,122.63,173a59.28,59.28,0,0,0,11.17-1.73,1.59,1.59,0,0,0,1.4-1.88,19.3,19.3,0,0,0-.29-2.73c-.42-2.49-1.29-3.21-3.8-3.22Z"/><path class="cls-1" d="M448,143c1.64-1.11,3.18-2.28,4.84-3.24a11.1,11.1,0,0,1,6.77-1.53,7.24,7.24,0,0,1,6.45,5.12,21.78,21.78,0,0,1,1.14,5.37,25.22,25.22,0,0,1-3.52,14.67c-2.44,4.4-5.63,8.27-8.62,12.29q-1.37,1.84-2.72,3.71c-.24.32-.51.69.18,1.09,1.57-1,3.19-2,4.83-3a29.6,29.6,0,0,0,7.73-6.68c.73-.91,1.76-1.57,2.52-2.46a19.92,19.92,0,0,0,3.69-7,139.68,139.68,0,0,1,6.13-16.18c4.44-9.47,9.5-18.56,16.16-26.69a45.83,45.83,0,0,1,11.92-10.67,15.14,15.14,0,0,1,10.73-2.16c4.11.75,6.09,3.84,5.25,7.83a42.83,42.83,0,0,1-5.81,13.93,96.75,96.75,0,0,1-11,14.3,196.69,196.69,0,0,1-17.82,16.82c-1.87,1.59-3.73,3.19-5.53,4.85a5.4,5.4,0,0,0-1.36,2,17.75,17.75,0,0,0-1,9.64c.91,4.34,3.31,6.16,7.27,6.41a8.05,8.05,0,0,0,5.34-1.62c2.41-1.8,4.85-3.59,7.08-5.6a62.58,62.58,0,0,0,12.5-15.63A49.11,49.11,0,0,1,518,149a33,33,0,0,1,20.16-10.7,8.57,8.57,0,0,1,8.44,3.31,8,8,0,0,1,1.38,5.66c-.1,1.21-.34,2.42-.46,3.63a2.73,2.73,0,0,0,1.82,3l3.08,1.32c-.35.54-.61,1-.9,1.37-3,4.27-6.06,8.49-8.93,12.84-1.54,2.34-2.73,4.9-4,7.38-.68,1.29-.18,2.59.09,4,1.64,0,3.19,0,4.47-1.41,6.07-6.49,12.36-12.79,18-19.69,2.62-3.21,5-6.6,7.51-9.89a19.9,19.9,0,0,1,1.69-1.73c.74.29.76.69.58,1.1a13.73,13.73,0,0,1-1.19,2.47,260.69,260.69,0,0,1-17.65,22.74c-2.82,3.16-5.86,6.14-8.91,9.08a32,32,0,0,1-4.43,3.29,7.35,7.35,0,0,1-5.15,1.09,4.87,4.87,0,0,1-3.84-3,17.42,17.42,0,0,1-.89-2.76,16.72,16.72,0,0,1-.31-1.68l-.83.81c-1.6,1.5-3.11,3.12-4.81,4.5-6.23,5-16.09.81-17.09-7a62.85,62.85,0,0,1-.17-6.87c0-.28,0-.56,0-1.22-.84.84-1.46,1.41-2,2a87.45,87.45,0,0,1-10.91,10.52A20.84,20.84,0,0,1,482,188a11.64,11.64,0,0,1-8.3-2,9.59,9.59,0,0,1-3.87-6.72c-.35-2.58-.49-5.18-.73-7.77,0-.33-.08-.66-.15-1.27L466.1,173a63.46,63.46,0,0,1-11.21,9,39.6,39.6,0,0,1-17,5.82,23.09,23.09,0,0,1-5.5-.29,5.84,5.84,0,0,1-4.18-3.1c-1.82-3.19-3.14-6.56-2.92-10.32a33.39,33.39,0,0,1,.73-4.19,8.25,8.25,0,0,1,.28-1l-.26-.18c-.26.24-.55.46-.79.72-2.23,2.39-4.38,4.86-6.69,7.17a45.33,45.33,0,0,1-12.43,9.1A22.18,22.18,0,0,1,399,188,12.22,12.22,0,0,1,386,178.14a17.12,17.12,0,0,1,.09-6.84,14,14,0,0,0,.18-1.71l-.32-.13c-.26.27-.55.52-.8.79-3.09,3.46-6.11,7-9.31,10.37a33.94,33.94,0,0,1-7.53,6,7.55,7.55,0,0,1-6,1.09c-3.61-1-5.52-4.28-3.85-8,1.53-3.44,3.28-6.8,4.93-10.2.06-.13.09-.27.22-.67a3.75,3.75,0,0,0-.83.55c-2.29,2.68-4.53,5.39-6.85,8a40.37,40.37,0,0,1-11.94,9.47,10.62,10.62,0,0,1-5.82,1,3.87,3.87,0,0,1-2.94-1.73,7.26,7.26,0,0,1-.81-8c3.48-7.24,7.55-14.15,11.6-21.08,2-3.48,4.09-7,6-10.49a22.44,22.44,0,0,0,1.3-3.43c.39-1.11.67-2.26,1.14-3.33.61-1.39,1.43-1.67,2.83-1.13a12.14,12.14,0,0,1,1.68.76c2.94,1.59,4,3.85,2.62,7.18-.94,2.37-2.07,4.67-3.24,6.94-3.94,7.63-8.54,14.89-13,22.19a24.75,24.75,0,0,0-2.19,5.78,4.35,4.35,0,0,0,4.76-.43,13.32,13.32,0,0,0,2.09-1.8q3.89-4,7.7-8.13a198.65,198.65,0,0,0,12.89-15.77c1.27-1.67,2.43-3.41,3.7-5.08a22.48,22.48,0,0,0,3.65-8.21c.21-.79.4-1.58.64-2.36.41-1.35,1-1.65,2.28-1.27a10.07,10.07,0,0,1,3.89,2.09,4,4,0,0,1,1.42,4.28,38.21,38.21,0,0,1-2.21,5.85c-3.73,7.74-8.11,15.13-12.59,22.46-.69,1.13-1.29,2.33-2.07,3.4a4.46,4.46,0,0,0-.62,4.27,2.64,2.64,0,0,0,2.67-.44c2.18-1.92,4.43-3.78,6.54-5.78,3.77-3.57,6.72-7.82,9.83-11.94,2.92-3.88,5.71-7.85,8.79-11.6a35.35,35.35,0,0,1,16.47-11.57c3.34-1.08,6.72-1.67,10.25-.76,2.62.68,3.7,2,3.86,4.75.32,5.49-2,9.7-6.18,13a31.17,31.17,0,0,1-18.4,7.18,3.11,3.11,0,0,0-3,2.16,63.73,63.73,0,0,0-3.07,12.31c-.41,3.15,1.2,5.68,4,6.37a6.55,6.55,0,0,0,5.31-.9c2.29-1.53,4.56-3.11,6.71-4.83A87.45,87.45,0,0,0,432.86,155c3.72-6.28,7.2-12.7,10.8-19.06l12.76-22.55a23.9,23.9,0,0,0,2.87-6.06,1.57,1.57,0,0,1,2.23-1.24c2.36,1,4.34,2.49,5.23,5.06a5.2,5.2,0,0,1-.7,4.41c-1.38,2.39-2.81,4.75-4.37,7-4.3,6.28-8.68,12.51-13,18.77C448.3,141.83,447.72,142.28,448,143ZM536.79,165c-1.31-2.25-1.26-2.83.27-4.67.26-.31.54-.61.78-.94,1.88-2.44,3.62-4.94,4.33-8a10,10,0,0,0,0-5.72,2.81,2.81,0,0,0-3.31-2,18.15,18.15,0,0,0-5.53,1.72,27.69,27.69,0,0,0-8.94,7.55,55.25,55.25,0,0,0-7.85,13.79,35.79,35.79,0,0,0-2.82,14.15,3.22,3.22,0,0,0,3.9,3.41,8.37,8.37,0,0,0,4.87-2,77.48,77.48,0,0,0,6-5.9c2.63-3.12,5-6.47,7.44-9.73A16.33,16.33,0,0,0,536.79,165Zm-77.27-17.27a33.53,33.53,0,0,0-.53-3.77,3.05,3.05,0,0,0-4.65-2.08c-.4.22-.8.45-1.19.69a33.07,33.07,0,0,0-7.93,7.37,83.08,83.08,0,0,0-11.73,18.78,24.14,24.14,0,0,0-2.58,8.28,10,10,0,0,0,1.07,5.48,2.41,2.41,0,0,0,3.22,1.26,13.44,13.44,0,0,0,3.21-1.73c8.28-6.21,14.2-14.31,18.55-23.61A26.6,26.6,0,0,0,459.52,147.71Zm22.2,10.71c.84.59,1.19,0,1.52-.27,3.78-3.27,7.67-6.43,11.27-9.9a125.9,125.9,0,0,0,8.72-9.45,90.1,90.1,0,0,0,15.1-23.86,5.21,5.21,0,0,0,.32-2.85c0-.37-.46-.94-.77-1-1.52-.22-3-.32-4.33.83s-2.52,2.24-3.79,3.35a41.58,41.58,0,0,0-7.48,7.86c-2.6,3.85-5.27,7.67-7.72,11.62-3.43,5.5-7.11,10.86-9.8,16.8C483.74,153.83,482.75,156.11,481.72,158.42Zm-79.61,1.85.33.26c1.4-.28,2.79-.55,4.18-.85a23.24,23.24,0,0,0,12.72-6.87c2-2.18,3.61-4.63,3.88-7.64.27-2.84-1.44-3.62-3.38-3a21.46,21.46,0,0,0-10.51,7.07c-2.19,2.81-4.19,5.77-6.21,8.71A12.73,12.73,0,0,0,402.11,160.27Z"/><path class="cls-1" d="M392.2,104.8c-.85.07-1.66.2-2.46.2-4.61,0-9.22,0-13.82,0a5.28,5.28,0,0,1-4.5-2.15Q362.92,92,354.37,81.18q-4.94-6.25-9.93-12.46c-.69-.86-1.5-1.61-2.5-2.67V89.38l-19.47-1V36.59a4.87,4.87,0,0,1,.93-.23c1.58-.12,3.16-.24,4.73-.31,2.71-.12,5.41-.27,8.11-.29a9.38,9.38,0,0,1,7.85,3.76q6.29,8,12.63,16,7.27,9.18,14.61,18.32a8.15,8.15,0,0,0,.83.76c.19-.27.41-.45.44-.66a10.56,10.56,0,0,0,0-1.38V36.74h19.42C392.38,38,392.52,100.28,392.2,104.8Z"/><path class="cls-1" d="M518.14,104.36V77.3H492v27.56a8.84,8.84,0,0,1-1.11.14q-7,0-14,0c-2,0-2.74-.61-2.76-2.62,0-2.71.1-5.42.16-8.12,0-.41,0-.82,0-1.23q0-22.73,0-45.44c0-3.07-.12-6.13-.18-9.2,0-.51,0-1,0-1.63h18V59.93c0,.41,0,.82,0,1.23a1.23,1.23,0,0,0,1.14,1.23,9.11,9.11,0,0,0,1.38.06h16.44c1.69,0,3.37-.08,5.06-.12,1.44,0,1.47,0,1.47-1.48q0-9.75,0-19.5c0-1,0-2,0-2.92.11-1.64.67-2.19,2.31-2.2,4.71,0,9.42,0,14.13,0,1.22,0,1.63.35,1.87,1.56a6.91,6.91,0,0,1,.1,1.37q0,31.25,0,62.48a7.8,7.8,0,0,1,0,1.08c-.19,1.33-.63,1.78-2,1.79-5.12,0-10.24,0-15.36,0A2.74,2.74,0,0,1,518.14,104.36Z"/><path class="cls-1" d="M468.72,104.94c-.62,0-1.07.07-1.52.07H452.76c-2.34,0-3.08-.52-3.84-2.72s-1.59-4.64-2.34-7-1.84-3.1-4.29-3.07l-16.42.18c-1.17,0-2.33-.06-3.5,0a3.28,3.28,0,0,0-3,2.3c-.75,1.73-1.45,3.49-2.21,5.22-.43,1-1,1.92-1.4,2.9a3.36,3.36,0,0,1-3.24,2.16c-5.22,0-10.44,0-15.87,0,.38-1.11.69-2.11,1.07-3.09q4.88-12.64,9.78-25.29c4.81-12.37,9.65-24.74,14.43-37.12,1.1-2.85,2.71-3.52,5.1-3.48,4.41.08,8.81,0,13.21,0,2.25,0,3,.52,3.79,2.61,3.46,9.39,6.87,18.81,10.4,28.18,2.43,6.45,5,12.84,7.52,19.27q3,7.71,5.88,15.47A32.89,32.89,0,0,1,468.72,104.94Zm-43.17-26.3H439.8a1.85,1.85,0,0,0,0-.54q-3-9.48-6.11-19a4.22,4.22,0,0,0-.64-.86C430.5,65.19,428,71.87,425.55,78.64Z"/><path class="cls-1" d="M304.81,150.72a64.08,64.08,0,0,0,22.07-5.66,60.19,60.19,0,0,0,14.86-9.36c4.45-3.89,8.43-8.17,11-13.59a23.54,23.54,0,0,0,2.43-9.27,11.33,11.33,0,0,0-4.52-9.63,21,21,0,0,0-12.53-4.78c-3.72-.13-7.45,0-11.17.13-2.91.07-5.82.22-8.73.3-1.27,0-2.54,0-4,0,0-1.56-.05-3.18,0-4.79,0-.8,1-1.57,2-1.64,3.11-.23,6.21-.46,9.31-.62,2.2-.12,4.4-.21,6.59-.18a35.53,35.53,0,0,1,15.95,3.8c6.53,3.38,9.94,8.88,11.11,16,.76,4.55-.46,8.83-1.94,13-3.62,10.25-10.46,17.91-19.52,23.68A68,68,0,0,1,317.35,157a58.46,58.46,0,0,1-12.56,1.73c-1.38,0-2.76.08-4.13.13a2.86,2.86,0,0,0-2.52,1.47c-4,6.73-8,13.44-11.94,20.18-1.9,3.27-2.72,6.92-3.47,10.58a17.88,17.88,0,0,1-.35,1.8,7.25,7.25,0,0,0,.16,5.36,2.63,2.63,0,0,1,.16,1.05A1.42,1.42,0,0,1,281,201a7.32,7.32,0,0,1-4.44-2.23c-4.15-3.91-5.09-9-2.85-14.43a56.7,56.7,0,0,1,7.6-12.55c3-3.9,6-7.74,9-11.6.34-.44.68-.88,1.15-1.47l-5.07-2c-1.19-.47-2.39-.91-3.55-1.44a9.76,9.76,0,0,1-4.42-14,34.05,34.05,0,0,1,22.13-15.7,23.31,23.31,0,0,1,5-.47,5.8,5.8,0,0,1,5.76,3.79,12.69,12.69,0,0,1,.3,8.12,29.92,29.92,0,0,1-3.83,8.32c-.85,1.45-1.72,2.9-2.56,4.36A10.1,10.1,0,0,0,304.81,150.72Zm-11.14.44a5.7,5.7,0,0,0,6-3.32c.49-.89,1-1.76,1.58-2.61a32.69,32.69,0,0,0,5.52-12.67c.38-2.2-.61-2.94-2.41-2.83a26.75,26.75,0,0,0-5.3.63,36.7,36.7,0,0,0-13.75,7.17,14.67,14.67,0,0,0-4.93,7.23c-.79,2.55.26,4.33,2.88,4.9,1.49.33,3,.54,4.52.75C290,150.72,292.2,151,293.67,151.16Z"/><path class="cls-1" d="M311.78,104.75H292.87c-.56-1-.29-2.07-.37-3.1-.05-.61.05-1.22.05-1.84q0-23.72,0-47.43c0-4.35-.07-8.69-.11-13a10.6,10.6,0,0,1,0-1.38c.17-1.82.84-2.37,2.69-2.3,2.25.1,4.49.23,6.74.24s4.59-.13,6.89-.15,3.12.74,3.12,3.12q0,21.18,0,42.36c0,7.27-.08,14.53-.12,21.79Z"/><path class="cls-1" d="M121.39,192.22a19.41,19.41,0,0,1,12.89,4.1A22.16,22.16,0,0,1,142.89,212,23.29,23.29,0,0,1,140,226.44a20.82,20.82,0,0,1-14.55,10.29,22.17,22.17,0,0,1-26.57-20.09,22.29,22.29,0,0,1,5.18-16.53A20.68,20.68,0,0,1,121.39,192.22Zm-.15,11a8.58,8.58,0,0,0-4.56,1.18c-6.26,3.67-9.06,13.22-2,19.53,3.63,3.24,7.28,3.67,11.21,1.17a12.16,12.16,0,0,0,4.91-5.9,8.84,8.84,0,0,0,.66-3.27,14.65,14.65,0,0,0-2-7.45C127.6,205.39,125,203.39,121.24,203.25Z"/><path class="cls-1" d="M288.89,102.16c.88.21.91.74.9,1.35,0,1.26,0,2.53,0,3.9l4.49.43c-.71.53-1.17.89-1.66,1.22a77,77,0,0,0-13.39,11.38,45.13,45.13,0,0,0-9.43,14c-.85,2.08-1.49,4.24-2.15,6.38-.8,2.59-1.95,3-4.09,1.27a7,7,0,0,1-2.46-8,32.61,32.61,0,0,1,2.63-6,55.6,55.6,0,0,1,8.2-11.22c4.27-4.65,9.22-8.5,14.09-12.47C287,103.69,287.91,102.93,288.89,102.16Z"/><path class="cls-1" d="M341.46,105H325.13a8.26,8.26,0,0,1-1.22,0,2,2,0,0,1-1.69-2,2.12,2.12,0,0,1,1.95-2.12c3.07,0,6.14.11,9.2.21,1.94.06,3.88.18,5.81.27a7.51,7.51,0,0,1,1.07.06,1.62,1.62,0,0,1,1.46,1.83C341.69,103.76,341.56,104.31,341.46,105Z"/></g></g></svg>