<svg xmlns="http://www.w3.org/2000/svg" viewBox="0 0 470.57 501.53"><defs><style>.cls-1{fill:#fff;}.cls-2{fill:#cbc3b4;}.cls-3{fill:none;}</style></defs><title>Recurso 2</title><g id="Capa_2" data-name="Capa 2"><g id="Capa_2-2" data-name="Capa 2"><path class="cls-1" d="M232,0c2.45,1.52,3.73,3.93,4.88,6.44q5.59,12.22,11.21,24.44c2,4.27,3.94,8.56,6.07,12.76a62.88,62.88,0,0,0,3.71,5.7c1.58-2.82,3.07-5.32,4.4-7.9,2.42-4.7,4.73-9.46,7.09-14.19,0-.1.12-.2.17-.3,2.05-4.08,5.16-5.21,9.43-3.13,6.31,3.06,12.57,6.22,18.86,9.32l27.36,13.52c1.13.56,2.24,1.17,3.32,1.82,2.87,1.75,4,3.69,2.64,7.42-.9,2.54-2.06,5-3.2,7.43-3.15,6.71-6.36,13.39-9.57,20.14a8.94,8.94,0,0,0,5,.42,36.93,36.93,0,0,1,38.36,19.66,41.23,41.23,0,0,1,2.74,34.28A41.34,41.34,0,0,1,349,158.44a35.19,35.19,0,0,1-20.35,6.48,84.08,84.08,0,0,1-12.88-.71c-.33,0-.67-.05-1.25-.1.8,1.88,1.49,3.61,2.27,5.3,3.1,6.67,6.24,13.32,9.36,20,.93,2,1.91,3.93,2.77,5.93s1.44,4.28.18,6.46a7.44,7.44,0,0,1-3,2.78c-3.39,1.82-6.77,3.65-10.18,5.44q-15,7.84-29.94,15.65c-2.85,1.48-5.75,2.88-8.66,4.23a22.66,22.66,0,0,1-3.27,1.05,4.62,4.62,0,0,1-5.18-1.78,18.49,18.49,0,0,1-2.12-3.34c-3.21-6.68-6.35-13.39-9.51-20.09-.17-.37-.31-.75-.51-1.1a2.51,2.51,0,0,0-3.42-1.36c-2.19.69-4.35,1.46-6.56,2.07a38,38,0,0,1-9,1.4c-3,.08-6,.31-9,.19a66.46,66.46,0,0,1-14.08-2.11c-2.78-.71-5.57-1.34-8.53-2.06-.61,1.26-1.22,2.48-1.78,3.71-2.68,5.91-5.33,11.84-8,17.74a18.73,18.73,0,0,1-1.91,3.46c-2.26,3-4,4-8.58,2.88a30.16,30.16,0,0,1-5.67-2.47c-5-2.5-9.92-5.07-14.89-7.6q-11-5.59-22-11.18c-2.3-1.17-4.58-2.39-6.86-3.61a20.5,20.5,0,0,1-2-1.31c-2.67-1.91-3.33-3.79-2.43-7.07a48.22,48.22,0,0,1,3-7.32c3.42-7.35,6.92-14.65,10.36-22,.49-1.06.8-2.22,1.25-3.46-2.05.29-3.91.58-5.78.8-12.54,1.41-23.71-1.44-32.87-10.58a43.58,43.58,0,0,1-10.64-16.32,39.34,39.34,0,0,1-2.23-12.83,43.13,43.13,0,0,1,3.63-18.44c5.82-13,15.69-21,29.63-23.88a51.11,51.11,0,0,1,11.64-1c.5,0,1,.1,1.68.16-.13-.42-.2-.77-.34-1.1q-4.38-9.74-8.78-19.48c-.73-1.62-1.52-3.22-2.25-4.84a20.16,20.16,0,0,1-1.09-2.89,3.78,3.78,0,0,1,1.55-4.4,40.43,40.43,0,0,1,3.69-2.21c5.89-3.12,11.79-6.2,17.69-9.3q12-6.3,24-12.58a40.12,40.12,0,0,1,8.19-3.6c3.63-1,5.85-.19,7.68,3.1,2.48,4.48,4.79,9,7.15,13.58,1.33,2.55,2.62,5.12,4,7.76a2.45,2.45,0,0,0,.53-.42,67.88,67.88,0,0,0,6.83-11.76c3-6.81,6.2-13.58,9.32-20.37.77-1.67,1.62-3.3,2.38-5,1.66-3.67,3.83-6.9,7.39-9Zm84.1,56.77a2,2,0,0,0-.39-.33l-14.65-7.68-13.12-6.91c-2.19-1.14-4.38-2.28-6.6-3.37-1.36-.67-2.1-.42-2.87.87a17.8,17.8,0,0,0-.89,1.87Q272.33,53,267.08,64.83c-1,2.2-2,4.38-2.95,6.61s-.63,3.23,1.1,4.73a27.88,27.88,0,0,0,2.66,1.9,57.08,57.08,0,0,1,16.19,16.25,54.7,54.7,0,0,1,9.06,35.51,62.71,62.71,0,0,1-3.84,16.72,51.81,51.81,0,0,1-20.76,25.91c-1.93,1.24-4,2.32-5.94,3.48-2.18,1.27-2.71,2.75-1.78,5.06.24.58.53,1.14.8,1.72,2.56,5.46,5.15,10.9,7.66,16.39,1.92,4.17,3.72,8.4,5.6,12.59,1.28,2.84,2.77,4.07,6.28,2.28,2.2-1.12,4.36-2.31,6.55-3.44,6.44-3.32,12.88-6.61,19.32-9.92,1.53-.79,3.08-1.54,4.53-2.46a3.22,3.22,0,0,0,1.49-4.17,24.75,24.75,0,0,0-1.08-2.91c-3.89-8.57-7.86-17.12-11.69-25.72-2.22-5-4.23-10.05-6.35-15.07a5.55,5.55,0,0,1,.2-5,20.49,20.49,0,0,1,2.11-3.32c2.08-2.56,4.79-2.44,7.14-.67,3.54,2.66,7.08,5.32,10.74,7.8a21.57,21.57,0,0,0,13.3,4A24.72,24.72,0,0,0,346,143.69a32.18,32.18,0,0,0,7.29-16.48,26,26,0,0,0-5.07-20.13,30.57,30.57,0,0,0-13-9.94A20.7,20.7,0,0,0,324,95.67a31.2,31.2,0,0,0-7,2.42c-2.48,1-4.95,2.15-7.52,2.93a7,7,0,0,1-7.63-2.28c-2-2.26-1.87-4.8-.79-7.42,1.49-3.61,2.92-7.24,4.49-10.82C309,72.62,312.54,64.76,316.09,56.77Zm-116.56,17c-1.65-3.44-3.28-6.73-4.81-10.07-3.4-7.41-6.75-14.85-10.12-22.27-.24-.52-.48-1-.76-1.55-.88-1.59-1.56-1.84-3.22-1.19-.22.08-.43.16-.64.26-2.25,1.15-4.49,2.32-6.75,3.45-6.63,3.33-13.26,6.63-19.89,10-1.84.93-3.66,1.92-5.49,2.87a2.17,2.17,0,0,0-1.19,2.6,14.69,14.69,0,0,0,.93,2.76c4,9,8,17.93,12,26.9a36.57,36.57,0,0,1,2,5.3,6.06,6.06,0,0,1-2.24,6.6,7.92,7.92,0,0,1-8.24,1.28,36.36,36.36,0,0,1-4.52-2.11,25.39,25.39,0,0,0-11.3-3.26c-7.62-.24-13.62,3.1-18.69,8.4A25.88,25.88,0,0,0,111,114.24c-1.36,4.36-2.45,8.77-1.92,13.38,1,8.68,4.93,15.78,12.13,20.75,7,4.82,14.57,5.92,22.57,2.67a29.45,29.45,0,0,0,9.53-6.42,11,11,0,0,1,9.11-3.18c4.14.34,6.9,2.59,6.17,7.84a17.22,17.22,0,0,1-1.37,4.59c-5.34,12.08-10.75,24.13-16.12,36.2-.65,1.46-1.13,3-1.71,4.49a2.1,2.1,0,0,0,.73,2.45,7.6,7.6,0,0,0,1.55,1.09q3.39,1.88,6.81,3.7,9.95,5.34,19.91,10.65c1.16.62,2.31,1.28,3.52,1.81,2.2,1,3.59.45,4.71-1.68.4-.76.67-1.59,1-2.37q6-13.34,12.11-26.67c.8-1.76,1.57-3.53,2.35-5.32-.33-.23-.5-.37-.7-.48a70.06,70.06,0,0,1-16.6-12.5A53.34,53.34,0,0,1,173,147.16a61.88,61.88,0,0,1-3.1-32.86A50.94,50.94,0,0,1,177,95.58,64.4,64.4,0,0,1,192.89,78.5C195,76.86,197.28,75.37,199.53,73.78Zm31.26,40.32h44.37a13.54,13.54,0,0,0,1.56,0c2-.21,2.67-1.2,2.06-3-.83-2.51-1.66-5-2.67-7.46a21.09,21.09,0,0,0-2.4-4.16,55,55,0,0,0-7.79-8.71,51.69,51.69,0,0,0-14-9.06A56.79,56.79,0,0,0,235,77.32a45.82,45.82,0,0,0-17.37,1.4A59.74,59.74,0,0,0,197.39,89.1a39.22,39.22,0,0,0-13.55,18.11,27,27,0,0,0-1.19,4.31,2,2,0,0,0,1.88,2.53,11,11,0,0,0,1.72,0Zm49.48,13c-2.87-.2-5.56-.59-8.23-.54-4.22.08-7.73,1.67-9.74,5.65a32.61,32.61,0,0,0-1.33,3.54,7.49,7.49,0,0,1-.49,1.45,41,41,0,0,1-7.92,9.93c-8.53,7.28-18.3,9.78-29.18,7.24a31.11,31.11,0,0,1-19.79-13.91c-1.88-2.94-3.42-6.1-5.14-9.16-.54-1-1.11-1.87-1.72-2.78a3,3,0,0,0-2.27-1.4c-1.43-.12-2.86-.22-4.29-.24-2.58,0-5.17,0-7.76,0h-1.66a3.28,3.28,0,0,0-.15.68c.06.57.16,1.13.21,1.7a43.83,43.83,0,0,0,4.49,15.63,48.93,48.93,0,0,0,12,15.57,50.29,50.29,0,0,0,10.89,7.2,51.15,51.15,0,0,0,23.46,5.23A49.29,49.29,0,0,0,247,170.21a52,52,0,0,0,22-14.55,42.52,42.52,0,0,0,10.33-19.58A39.76,39.76,0,0,0,280.27,127.13ZM230.2,25.46c-.48,1-.87,1.71-1.23,2.48q-3.18,7-6.36,13.94-4.8,10.59-9.56,21.21a6.94,6.94,0,0,0-.44,2,1.7,1.7,0,0,0,1.3,2,9,9,0,0,0,2.53.38q13.89,0,27.79-.11c1.29,0,2.58-.23,4-.36-.37-2.17-.46-4.2-1.37-6.13-5.29-11.16-10.51-22.35-15.76-33.53C230.82,26.74,230.55,26.19,230.2,25.46ZM213.81,127.13v-.22c-.69,0-1.38,0-2.07,0a3.28,3.28,0,0,0-.66.19c-1.4.38-1.84.78-1.54,2.17a11.73,11.73,0,0,0,1.56,3.94A28.63,28.63,0,0,0,224,143.77a18.72,18.72,0,0,0,9.08,1.11,20,20,0,0,0,8.65-2.59c4.81-2.78,7.9-7.06,10.32-11.92a4,4,0,0,0,.4-1.31,1.44,1.44,0,0,0-1.27-1.88,12.14,12.14,0,0,0-2.55-.27c-6.94,0-13.89.16-20.83.21C223.1,127.15,218.46,127.13,213.81,127.13Zm17.67,57c-3.91,0-7.82,0-11.73,0-2,0-3.12.76-3.56,2.37a39.05,39.05,0,0,0-.8,3.87,2.06,2.06,0,0,0,1.26,2.39,7.41,7.41,0,0,0,1.47.47,50.13,50.13,0,0,0,18.57,1.27c2.89-.39,5.75-1,8.6-1.63,1.58-.34,2-1,1.84-2.6-.07-.91-.19-1.82-.35-2.72-.42-2.27-1.4-3.5-4.09-3.45C239,184.21,235.22,184.15,231.48,184.15Z"/><path class="cls-1" d="M405.38,408.16c-.75,2.72-2.57,4.81-4.22,7-4.84,6.34-9.67,12.7-14.67,18.93A105.7,105.7,0,0,1,374,447.18a53.2,53.2,0,0,1-4.83,3.61,8.36,8.36,0,0,1-6.11,1.27,5.36,5.36,0,0,1-4.31-3.57,45,45,0,0,1-1.33-4.54l-.76.68c-1.88,1.77-3.69,3.63-5.66,5.29a9.72,9.72,0,0,1-6.87,2.36c-5.38-.36-10.85-3.24-12-9.91a59.15,59.15,0,0,1-.36-7.9c0-.43,0-.86,0-1.7-1.76,1.88-3.26,3.5-4.79,5.1-4,4.19-8.05,8.38-13.11,11.37a19.29,19.29,0,0,1-10.25,3.08c-6.68-.11-11.37-3.86-12.18-10.87-.34-3-.56-5.93-.84-9-.63.06-.94.68-1.35,1.09A90.33,90.33,0,0,1,278,443.43a46.51,46.51,0,0,1-20.67,8.48,31.64,31.64,0,0,1-6.88,0,7.07,7.07,0,0,1-5.73-3.93c-2-3.57-3.43-7.31-3.1-11.48.14-1.65.58-3.27.88-4.89.05-.31.11-.62.23-1.29-.55.49-.85.72-1.1,1-4.18,4.67-8.32,9.37-13.31,13.22a39,39,0,0,1-13,7c-4.88,1.39-9.41.81-13.38-2.6a13.46,13.46,0,0,1-4.9-10.42,57.09,57.09,0,0,1,.49-5.82c0-.41.06-.83.11-1.64a9,9,0,0,0-1.05.82c-3.22,3.66-6.36,7.41-9.68,11a41.77,41.77,0,0,1-9.74,7.9,8.25,8.25,0,0,1-7.1.91,6.15,6.15,0,0,1-4-8.28c.81-2.08,1.82-4.09,2.78-6.11s2.05-4.19,2.91-6.45a3.41,3.41,0,0,0-.68.5c-2.54,3-5,6-7.59,8.93A46.43,46.43,0,0,1,150.16,451a12.18,12.18,0,0,1-6.88,1.1,4.19,4.19,0,0,1-2.77-1.6,8.07,8.07,0,0,1-1.21-9.14c3.91-8.34,8.62-16.24,13.26-24.17,2.23-3.82,4.48-7.64,6.59-11.52a31.57,31.57,0,0,0,1.7-4.5c.34-1,.58-2,1-2.94.76-1.74,1.68-2.12,3.41-1.42A15.64,15.64,0,0,1,167.7,398c2.5,1.56,3.44,3.65,2.58,6.47a33.5,33.5,0,0,1-2.63,6.34c-3.78,6.85-7.67,13.62-11.56,20.39-1.18,2-2.51,4-3.75,6a17.31,17.31,0,0,0-1.4,2.57c-.66,1.64-1.19,3.34-1.81,5.1a4,4,0,0,0,4.42.11,22.4,22.4,0,0,0,4-3.23c2.09-2.05,4-4.26,6.06-6.36a186.25,186.25,0,0,0,13.22-15.67c2.63-3.41,5.11-6.94,7.69-10.4a23.9,23.9,0,0,0,3.65-8.31c.27-1,.49-2,.79-3,.46-1.56,1.24-2.07,2.69-1.48a20.14,20.14,0,0,1,4.21,2.28,4.62,4.62,0,0,1,1.71,4.73,23.39,23.39,0,0,1-2.52,6.75c-4.4,9.06-9.56,17.69-14.77,26.29a30.3,30.3,0,0,1-1.71,2.8,4.64,4.64,0,0,0-.59,4.91,3.1,3.1,0,0,0,2.86-.59c2.5-2.2,5.06-4.33,7.47-6.63,4.23-4,7.54-8.81,11-13.44,3.28-4.36,6.43-8.84,9.9-13a39.62,39.62,0,0,1,18.53-13,21.34,21.34,0,0,1,11.53-.84c2.66.61,4,2.18,4.18,4.92.55,6.54-2.25,11.47-7.23,15.35a35.59,35.59,0,0,1-17.49,7.58c-.85.11-1.72.13-2.58.17a3.87,3.87,0,0,0-3.83,2.87A82.47,82.47,0,0,0,209,441.36a6.29,6.29,0,0,0,7.5,7.05,12,12,0,0,0,3.63-1.48,77.53,77.53,0,0,0,10.5-8.08c9.78-8.65,17.11-19.17,23.44-30.47q12.18-21.72,24.35-43.45a16.84,16.84,0,0,0,1.23-3.19c.58-1.76,1.65-2.35,3.28-1.54a11.26,11.26,0,0,1,4.45,3.73,5.73,5.73,0,0,1,.27,6.22q-1.39,2.67-3.05,5.19c-5.16,7.9-10.33,15.79-16,23.32a19.77,19.77,0,0,0-1.19,1.69,7.84,7.84,0,0,0-.46,1.2l.28.2,1.56-1.23a19.17,19.17,0,0,1,7.39-3.94c3.29-.77,6.39-.55,9,1.86a11.17,11.17,0,0,1,3.16,6.54,28.48,28.48,0,0,1-3.44,19.45c-2.63,4.74-6,9-9.27,13.28-1,1.29-2,2.54-2.91,3.84-.42.58-.74,1.23-1.24,2.08.61,0,.93.1,1.1,0q5.09-3.39,10.13-6.86a7.51,7.51,0,0,0,1.14-1.05c1.4-1.44,2.75-2.92,4.18-4.32a21.74,21.74,0,0,0,5.15-8.66c1.77-4.92,3.33-9.92,5.36-14.73,5.15-12.16,11.48-23.68,19.84-34a52.14,52.14,0,0,1,13.39-12A17.85,17.85,0,0,1,343,359.4c2.87.3,5.32,1.46,6.52,4.36a8.5,8.5,0,0,1,.13,5.23,48.69,48.69,0,0,1-6.37,15,111.05,111.05,0,0,1-12.51,16.22,221.06,221.06,0,0,1-20,18.92c-2.05,1.74-4.06,3.55-6.1,5.31a6.12,6.12,0,0,0-1.81,2.89,23.2,23.2,0,0,0-1,9.36c.59,6.24,6,9.67,11.94,7.48a16.69,16.69,0,0,0,3.88-2.19,73.36,73.36,0,0,0,21.17-24,49.11,49.11,0,0,1,7.79-10.49,38.78,38.78,0,0,1,19.93-11,13.44,13.44,0,0,1,6.78.21,8.31,8.31,0,0,1,6.24,8.13,52.81,52.81,0,0,1-.45,5.31c-.18,2.05.35,3,2.18,3.79.94.42,1.9.81,2.84,1.22.09,0,.13.18.27.37-.2.33-.41.73-.66,1.09-3.79,5.48-7.66,10.92-11.36,16.46-1.35,2-2.29,4.37-3.45,6.55-.79,1.48-.08,2.9,0,4.41,2.05.2,3.77,0,5.25-1.59,6.86-7.35,13.95-14.5,20.31-22.29,2.9-3.56,5.53-7.35,8.3-11a19.79,19.79,0,0,1,1.43-1.47c.46-.5.82-.1,1.2.11Zm-31.91-.47a26.48,26.48,0,0,0-.67-3.35,3,3,0,0,0-3.19-2.1,9.88,9.88,0,0,0-1.69.26c-5.74,1.15-10.12,4.52-13.84,8.79a59.23,59.23,0,0,0-11.39,20.87,38.41,38.41,0,0,0-1.83,11.67c0,2.84,1.53,4.3,4.29,4.11a10.05,10.05,0,0,0,5.93-2.47,57,57,0,0,0,8.76-9.21c2.15-2.82,4.21-5.73,6.3-8.61.44-.6.9-1.25.34-2-1.18-1.6-.61-3,.48-4.34s2.42-3.06,3.5-4.68A17.55,17.55,0,0,0,373.47,407.69ZM280,406.55c-.09-.84-.15-2.17-.4-3.45-.58-2.94-2.92-4-5.56-2.69-.41.21-.79.46-1.19.7a33.81,33.81,0,0,0-7.68,6.84,93.29,93.29,0,0,0-14.31,22.44,53,53,0,0,0-2.42,6.43,12.49,12.49,0,0,0,.29,8.44c.85,2.16,2.43,2.89,4.56,2a16.8,16.8,0,0,0,3.38-2c9-6.93,15.57-15.85,20.4-26.07A31,31,0,0,0,280,406.55Zm25.13,12.51c.94.41,1.36-.21,1.79-.59,4.16-3.6,8.4-7.14,12.41-10.9,2.84-2.67,5.46-5.59,8-8.53a141.12,141.12,0,0,0,12-15.94,94.55,94.55,0,0,0,6.89-13.48,6.34,6.34,0,0,0,.31-2.69c0-.42-.47-1.14-.78-1.18-1.69-.19-3.45-.54-4.91.78-.94.85-1.86,1.71-2.81,2.55-3.1,2.73-6.4,5.27-8.82,8.67-3,4.17-5.87,8.38-8.62,12.69-5.59,8.76-11.27,17.48-15.07,27.23C305.35,418.12,305.24,418.59,305.1,419.06Zm-89.61,2.34c4.33-.9,8.24-1.54,11.84-3.29,5-2.41,8.91-5.88,11.1-11.06a10.21,10.21,0,0,0,.82-3.65c0-2.39-1.52-3.43-3.8-2.7a23.54,23.54,0,0,0-11.82,7.95c-2.55,3.32-4.91,6.79-7.29,10.23A10.94,10.94,0,0,0,215.49,421.4Z"/><path class="cls-1" d="M78.64,466.91a14.7,14.7,0,0,1-5-3.41c-3.39-4-4.81-8.4-3.09-13.55a43.4,43.4,0,0,1,6.43-12.14c4.25-5.71,8.64-11.32,13-17,.37-.49.72-1,1.2-1.64l-4.3-1.66c-1.76-.7-3.56-1.31-5.26-2.13a10.94,10.94,0,0,1-6.61-9.73,10.62,10.62,0,0,1,1.77-6.38,39.36,39.36,0,0,1,23.9-17.19,23.59,23.59,0,0,1,7.35-.59,6.73,6.73,0,0,1,5.88,5.08,14.94,14.94,0,0,1-.1,8.51,42.81,42.81,0,0,1-2.74,6.48c-1.25,2.45-2.73,4.79-4.11,7.18-.24.43-.46.88-.78,1.49a60.18,60.18,0,0,0,10.23-1.44A73.21,73.21,0,0,0,145.7,395a55.82,55.82,0,0,0,11.52-12.05,30.26,30.26,0,0,0,5.42-13.81c.72-6.06-1.85-10.47-6.76-13.65a23.24,23.24,0,0,0-12.27-4c-4-.07-8,0-12,.05-3.39.07-6.77.25-10.15.4-1.48.06-3,.17-4.7.27,0-2-.09-3.86,0-5.72.06-.94,1.4-1.73,2.66-1.82,2.06-.15,4.11-.34,6.17-.43,4.08-.16,8.15-.41,12.22-.34a36.25,36.25,0,0,1,19.56,5.74c4.94,3.21,7.75,7.89,9.32,13.43a25.34,25.34,0,0,1-.42,14.1,49.65,49.65,0,0,1-10.86,20,60.53,60.53,0,0,1-15,12A77.76,77.76,0,0,1,121,417.17a62.92,62.92,0,0,1-14.77,2.12c-1.66,0-3.32.16-5,.22a3,3,0,0,0-2.65,1.62c-3.53,5.86-7.15,11.66-10.57,17.59a63.93,63.93,0,0,0-4.8,9.71c-1.18,3.2-1.66,6.66-2.5,10A7.28,7.28,0,0,0,81,463.3a2.86,2.86,0,0,1-.59,3.61Zm15.67-56c3,0,4.73-1.51,6-3.76a17.75,17.75,0,0,1,1.15-2.11,43.33,43.33,0,0,0,4.9-8.5,23.47,23.47,0,0,0,2-7.44c.14-1.59-.45-2.3-2-2.35a23.15,23.15,0,0,0-4.64.22c-6.54,1.17-12.17,4.32-17.36,8.35a16.44,16.44,0,0,0-5.64,8.07c-1,3.1.24,5.22,3.44,5.8,2.19.4,4.41.7,6.62,1C90.7,410.44,92.64,410.66,94.31,410.87Z"/><path class="cls-2" d="M56.19,393l.38,0,.06,2.33-.44.07Z"/><path class="cls-1" d="M182.25,324.4V282.08h22.08v76.56c-.86.05-1.65.15-2.44.15-5.35,0-10.7,0-16,0a5.62,5.62,0,0,1-4.75-2.3q-12.5-15.93-25-31.83c-2.49-3.15-5.13-6.18-7.71-9.26a1,1,0,0,0-.3-.16.75.75,0,0,0-.15.09s-.1.07-.1.11a4.36,4.36,0,0,0,0,.51q0,12.36,0,24.71a.55.55,0,0,1,0,.17s-.06.09-.27.38L126,340.13V281.65c1.76-.13,3.51-.3,5.26-.38,3.32-.14,6.65-.23,10-.34a10.55,10.55,0,0,1,9.13,4.28q8.23,10.52,16.54,21,6.75,8.5,13.54,17c.42.52.89,1,1.34,1.47Z"/><path class="cls-1" d="M345.34,310.62v-2q0-11.66,0-23.32a9.92,9.92,0,0,1,.14-1.88c.29-1.47.82-1.94,2.32-2,1.09-.05,2.18,0,3.28,0h12.43c1.91,0,2.45.53,2.54,2.43,0,.41,0,.81,0,1.21v69.62c0,.41,0,.81,0,1.21-.08,1.87-.64,2.45-2.54,2.48-2.71,0-5.41,0-8.12,0h-8.46c-.27,0-.55,0-1-.05V327.91c-1.39-.42-24.92-.58-29.4-.23v31c-.64,0-1.09.09-1.54.09H299.68c-2.5,0-3.14-.62-3.14-3.19,0-3.39.09-6.79.09-10.18q0-25.65,0-51.31v-12h20v1.85c0,8.12.05,16.24,0,24.36,0,2.31,1,2.73,2.76,2.71,6.27,0,12.54,0,18.81,0C340.5,311,342.78,310.75,345.34,310.62Z"/><path class="cls-1" d="M290.42,358.79h-18c-2.69,0-3.44-.5-4.31-3s-1.82-5.32-2.67-8c-.79-2.46-1.93-3.28-4.78-3.26l-18.11.11c-1,0-2.07-.1-3.1-.1-2.56,0-3.74.83-4.74,3.19-1.15,2.7-2.35,5.37-3.53,8.05-.11.26-.26.51-.38.77a3.84,3.84,0,0,1-3.74,2.27c-2.76,0-5.52,0-8.28,0h-9.31a13.28,13.28,0,0,1,.38-1.39q6.69-17.36,13.39-34.71,7.16-18.46,14.34-36.92c.19-.48.37-1,.57-1.44a4.47,4.47,0,0,1,4.5-3.07c5.35,0,10.7,0,16.06,0,2.23,0,3.11.59,3.88,2.68,2.79,7.59,5.5,15.22,8.36,22.79,3.59,9.51,7.3,19,10.93,28.45q3.8,9.9,7.5,19.81C289.81,356.11,290,357.3,290.42,358.79Zm-39.66-52.32-.59,0-8.34,22.72h16.25C255.65,321.53,253.24,314,250.76,306.47Z"/><path class="cls-1" d="M113.86,358.64H92.58c-.12-1.19-.28-2.35-.33-3.52,0-.74.14-1.48.14-2.22q0-27,0-53.91c0-4.71-.15-9.43-.21-14.14a9.89,9.89,0,0,1,.17-1.88c.31-1.68,1-2.26,2.64-2.24l15.67.18c2.66,0,3.49.83,3.5,3.53,0,15.83,0,31.67,0,47.51,0,8.34-.14,16.68-.22,25C113.92,357.48,113.88,358,113.86,358.64Z"/><path class="cls-1" d="M255.9,241.55c-.08,6.15-1.62,11.82-5.63,16.62a24.27,24.27,0,0,1-16.31,8.7,23.74,23.74,0,0,1-18.06-5.05A24.31,24.31,0,0,1,206.4,245c-1.1-8.9,1.8-16.42,8.3-22.5a22,22,0,0,1,12.75-5.93,29.53,29.53,0,0,1,9.57.32c8.1,1.76,13.48,6.8,16.79,14.23A24.55,24.55,0,0,1,255.9,241.55ZM231,228.76a19.87,19.87,0,0,0-3.24.78,13.24,13.24,0,0,0-8.33,12.94c.14,5.61,3.23,9.7,8.4,12a8.1,8.1,0,0,0,6.66.06,13.78,13.78,0,0,0,7.82-8,8.49,8.49,0,0,0,.67-3.35,17.56,17.56,0,0,0-2.36-8.53A11.3,11.3,0,0,0,231,228.76Z"/><path class="cls-1" d="M56.63,395.3,56.57,393c2-7.14,6.06-13.05,10.72-18.63,5.24-6.25,11.63-11.24,17.95-16.3l3-2.41c.94.17,1.1.7,1.08,1.41,0,1.43,0,2.87,0,4.53l5,.41c-.73.56-1.18.94-1.67,1.26A86.13,86.13,0,0,0,77.55,376c-6.16,6.46-10.83,13.81-13,22.57a11.54,11.54,0,0,1-.51,1.64c-.66,1.53-1.76,1.93-3.19,1.06a7.79,7.79,0,0,1-4-5.35A5.1,5.1,0,0,0,56.63,395.3Z"/><path class="cls-3" d="M147.26,358.8H129c-.35,0-.69,0-1,0a2.22,2.22,0,0,1-2.32-2.06,2.39,2.39,0,0,1,2.38-2.54c5,.11,10.1.25,15.15.38l1.9.07c2.13.09,2.86,1,2.4,3.12C147.44,358,147.37,358.32,147.26,358.8Z"/></g><g id="Capa_3" data-name="Capa 3"><rect class="cls-3" width="470.57" height="501.53"/></g></g></svg>